<svg viewBox="0 0 20 20" fill="none" xmlns="http://www.w3.org/2000/svg">
<mask id="mask0_7163_3" style="mask-type:luminance" maskUnits="userSpaceOnUse" x="0" y="0" width="20" height="20">
<path d="M0 0H20V20H0V0Z" fill="white"/>
</mask>
<g mask="url(#mask0_7163_3)">
<rect x="2" y="2" width="16" height="16" fill="white"/>
<path d="M7.32996 10.2202V10.7402C7.32996 10.8302 7.27996 10.8702 7.18996 10.8702H5.11996C4.99996 10.8702 4.95996 10.8702 4.95996 10.7102V7.50021C4.95996 7.37021 4.95996 7.33021 5.12996 7.33021H5.58996C5.70996 7.33021 5.74996 7.38021 5.74996 7.49021V10.0502H7.21996C7.24905 10.0534 7.27623 10.0662 7.29709 10.0867C7.31796 10.1072 7.3313 10.1342 7.33496 10.1632C7.33888 10.1823 7.33714 10.2021 7.32996 10.2202ZM8.60996 7.49021V10.7102C8.60996 10.8302 8.60996 10.8702 8.43996 10.8702C8.27996 10.8802 8.11996 10.8802 7.95996 10.8702C7.93817 10.8736 7.91588 10.8718 7.89491 10.865C7.87393 10.8582 7.85487 10.8465 7.83928 10.8309C7.82368 10.8153 7.81199 10.7962 7.80516 10.7753C7.79832 10.7543 7.79654 10.732 7.79996 10.7102V7.49021C7.79466 7.46394 7.7965 7.43674 7.80527 7.41143C7.81404 7.38611 7.82944 7.36361 7.84985 7.34626C7.87027 7.3289 7.89496 7.31734 7.92135 7.31276C7.94775 7.30817 7.97489 7.31075 7.99996 7.32021H8.46996C8.49061 7.3214 8.51079 7.32684 8.52923 7.3362C8.54767 7.34557 8.56398 7.35864 8.57712 7.3746C8.59027 7.39057 8.59998 7.40908 8.60563 7.42897C8.61128 7.44887 8.61275 7.46972 8.60996 7.49021ZM12.24 7.48021V10.7102C12.24 10.8202 12.24 10.8602 12.08 10.8602H11.57C11.5465 10.8611 11.5233 10.856 11.5023 10.8455C11.4813 10.835 11.4633 10.8195 11.45 10.8002L10.7 9.80021L9.99996 8.85021V8.78021V10.7202C9.99996 10.8602 9.99996 10.8902 9.82996 10.8902H9.36996C9.33705 10.8954 9.30335 10.8887 9.27494 10.8713C9.24653 10.8539 9.22526 10.8269 9.21496 10.7952C9.2082 10.7742 9.20649 10.752 9.20996 10.7302V7.50021C9.20847 7.48013 9.21132 7.45996 9.21833 7.44108C9.22534 7.42221 9.23634 7.40507 9.25058 7.39083C9.26482 7.37659 9.28196 7.36559 9.30084 7.35858C9.31971 7.35157 9.33988 7.34871 9.35996 7.35021H9.90996C9.92839 7.35316 9.94597 7.36005 9.9615 7.3704C9.97703 7.38076 9.99015 7.39433 9.99996 7.41021L11.1 9.00021L11.39 9.39021V9.44021V7.50021C11.39 7.37021 11.44 7.32021 11.57 7.32021H12.02C12.18 7.32021 12.24 7.37021 12.24 7.48021ZM15.15 7.50021V8.00021C15.15 8.11021 15.15 8.16021 15 8.16021H13.65C13.58 8.16021 13.58 8.16021 13.58 8.23021V8.65021C13.58 8.73021 13.58 8.73021 13.65 8.73021H15C15.13 8.73021 15.17 8.78021 15.17 8.91021V9.37021C15.1734 9.392 15.1716 9.41429 15.1648 9.43526C15.1579 9.45623 15.1462 9.4753 15.1306 9.49089C15.115 9.50649 15.096 9.51818 15.075 9.52501C15.054 9.53185 15.0318 9.53363 15.01 9.53021H13.65C13.58 9.53021 13.58 9.53021 13.58 9.61021V10.0002C13.58 10.0802 13.58 10.0802 13.65 10.0802H15C15.12 10.0802 15.16 10.0802 15.16 10.2502V10.7102C15.16 10.8302 15.16 10.8702 15 10.8702H12.95C12.77 10.8702 12.78 10.8702 12.78 10.7102V7.50021C12.78 7.38021 12.83 7.33021 12.95 7.33021H14.95C15.11 7.33021 15.15 7.38021 15.15 7.50021Z" fill="#31C07E"/>
<path d="M16 0H4C2.93913 0 1.92172 0.421427 1.17157 1.17157C0.421427 1.92172 0 2.93913 0 4V16C0 17.0609 0.421427 18.0783 1.17157 18.8284C1.92172 19.5786 2.93913 20 4 20H16C17.0609 20 18.0783 19.5786 18.8284 18.8284C19.5786 18.0783 20 17.0609 20 16V4C20 2.93913 19.5786 1.92172 18.8284 1.17157C18.0783 0.421427 17.0609 0 16 0ZM17.1 11C16.8458 11.5728 16.5089 12.1051 16.1 12.58C15.446 13.3218 14.7153 13.9922 13.92 14.58C12.9993 15.3033 12.0393 15.97 11.04 16.58C10.73 16.77 10.41 16.94 10.09 17.1C9.95043 17.1822 9.79197 17.227 9.63 17.23C9.59395 17.2368 9.55679 17.2348 9.52164 17.2243C9.48649 17.2138 9.45437 17.1951 9.42794 17.1696C9.40152 17.1442 9.38156 17.1128 9.36974 17.0781C9.35792 17.0433 9.35458 17.0063 9.36 16.97C9.35065 16.8335 9.35065 16.6965 9.36 16.56C9.4263 16.2508 9.46314 15.9361 9.47 15.62C9.47266 15.5258 9.44753 15.4329 9.39774 15.3529C9.34795 15.2728 9.2757 15.2092 9.19 15.17C9.02326 15.0881 8.84422 15.034 8.66 15.01C7.6977 14.8711 6.76507 14.5738 5.9 14.13C5.08494 13.7135 4.36088 13.139 3.77 12.44C3.16549 11.7353 2.74923 10.889 2.56 9.98C2.56 9.77 2.5 9.56 2.48 9.34C2.46 9.12 2.48 8.93 2.48 8.72C2.51002 8.1671 2.63168 7.62303 2.84 7.11C3.11118 6.42504 3.50419 5.79487 4 5.25C4.70941 4.50759 5.56372 3.91876 6.51 3.52C7.10634 3.28114 7.72654 3.10681 8.36 3L9.12 2.9H10.81C11.9558 2.99424 13.0712 3.31727 14.09 3.85C14.8 4.215 15.446 4.694 16 5.27C16.5813 5.87694 17.0157 6.60901 17.27 7.41C17.38 7.733 17.451 8.07 17.48 8.41V9.06C17.4923 9.72629 17.3628 10.3876 17.1 11Z" fill="#31C07E"/>
<path d="M12.24 7.48021V10.7102C12.24 10.8202 12.24 10.8602 12.08 10.8602H11.57C11.5465 10.8611 11.5233 10.856 11.5023 10.8455C11.4813 10.835 11.4633 10.8195 11.45 10.8002L10.7 9.80021L9.99996 8.85021V8.78021V10.7202C9.99996 10.8602 9.99996 10.8902 9.82996 10.8902H9.36996C9.33705 10.8954 9.30335 10.8887 9.27494 10.8713C9.24653 10.8539 9.22526 10.8269 9.21496 10.7952C9.2082 10.7742 9.20649 10.752 9.20996 10.7302V7.50021C9.20847 7.48013 9.21132 7.45996 9.21833 7.44108C9.22534 7.42221 9.23634 7.40507 9.25058 7.39083C9.26482 7.37659 9.28196 7.36559 9.30084 7.35858C9.31971 7.35157 9.33988 7.34871 9.35996 7.35021H9.90996C9.92839 7.35316 9.94597 7.36005 9.9615 7.3704C9.97703 7.38076 9.99015 7.39433 9.99996 7.41021L11.1 9.00021L11.39 9.39021V9.44021V7.50021C11.39 7.37021 11.44 7.32021 11.57 7.32021H12.02C12.18 7.32021 12.24 7.37021 12.24 7.48021ZM13.58 8.20021V8.62021C13.58 8.70021 13.58 8.70021 13.65 8.70021H15C15.13 8.70021 15.17 8.75021 15.17 8.88021V9.34021C15.1734 9.362 15.1716 9.38429 15.1648 9.40526C15.1579 9.42623 15.1462 9.4453 15.1306 9.46089C15.115 9.47649 15.096 9.48818 15.075 9.49501C15.054 9.50185 15.0318 9.50363 15.01 9.50021H13.65C13.58 9.50021 13.58 9.50021 13.58 9.58021V10.0002C13.58 10.0802 13.58 10.0802 13.65 10.0802H15C15.12 10.0802 15.16 10.0802 15.16 10.2502V10.7102C15.16 10.8302 15.16 10.8702 15 10.8702H12.95C12.77 10.8702 12.78 10.8702 12.78 10.7102V7.50021C12.78 7.38021 12.83 7.33021 12.95 7.33021H14.95C15.07 7.33021 15.11 7.38021 15.11 7.50021V8.00021C15.11 8.11021 15.11 8.16021 14.96 8.16021H13.65C13.58 8.13021 13.58 8.13021 13.58 8.20021ZM7.32996 10.2202V10.7402C7.32996 10.8302 7.27996 10.8702 7.18996 10.8702H5.11996C4.99996 10.8702 4.95996 10.8702 4.95996 10.7102V7.50021C4.95996 7.37021 4.95996 7.33021 5.12996 7.33021H5.58996C5.70996 7.33021 5.74996 7.38021 5.74996 7.49021V10.0502H7.21996C7.24905 10.0534 7.27623 10.0662 7.29709 10.0867C7.31796 10.1072 7.3313 10.1342 7.33496 10.1632C7.33888 10.1823 7.33714 10.2021 7.32996 10.2202ZM8.60996 7.49021V10.7102C8.60996 10.8302 8.60996 10.8702 8.43996 10.8702C8.27996 10.8802 8.11996 10.8802 7.95996 10.8702C7.93817 10.8736 7.91588 10.8718 7.89491 10.865C7.87393 10.8582 7.85487 10.8465 7.83928 10.8309C7.82368 10.8153 7.81199 10.7962 7.80516 10.7753C7.79832 10.7543 7.79654 10.732 7.79996 10.7102V7.49021C7.79466 7.46394 7.7965 7.43674 7.80527 7.41143C7.81404 7.38611 7.82944 7.36361 7.84985 7.34626C7.87027 7.3289 7.89496 7.31734 7.92135 7.31276C7.94775 7.30817 7.97489 7.31075 7.99996 7.32021H8.46996C8.49061 7.3214 8.51079 7.32684 8.52923 7.3362C8.54767 7.34557 8.56398 7.35864 8.57712 7.3746C8.59027 7.39057 8.59998 7.40908 8.60563 7.42897C8.61128 7.44887 8.61275 7.46972 8.60996 7.49021Z" fill="#31C07E"/>
</g>
</svg>
