<svg width="40" height="31" viewBox="0 0 40 31" fill="none" xmlns="http://www.w3.org/2000/svg">
<path d="M22.2661 0.826064C22.8019 0.297135 23.5285 0 24.2861 0C25.0437 0 25.7703 0.297135 26.3061 0.826064L39.1635 13.5223C39.6991 14.0514 40 14.7689 40 15.517C40 16.2652 39.6991 16.9827 39.1635 17.5118L26.3061 30.208C25.7672 30.7219 25.0455 31.0063 24.2964 30.9999C23.5472 30.9935 22.8306 30.6967 22.3009 30.1736C21.7711 29.6505 21.4706 28.9429 21.4641 28.2031C21.4576 27.4634 21.7456 26.7507 22.2661 26.2186L30.0005 18.3384H2.85719C2.09941 18.3384 1.37268 18.0412 0.836851 17.5121C0.301024 16.9829 0 16.2653 0 15.517C0 14.7688 0.301024 14.0511 0.836851 13.522C1.37268 12.9929 2.09941 12.6956 2.85719 12.6956H30.0005L22.2661 4.81551C21.7304 4.28642 21.4295 3.56892 21.4295 2.82079C21.4295 2.07265 21.7304 1.35515 22.2661 0.826064Z" fill="white"/>
</svg>
