<?xml version="1.0" encoding="UTF-8"?><svg id="_レイヤー_2" xmlns="http://www.w3.org/2000/svg" viewBox="0 0 293.59 60"><defs><style>.cls-1{fill:#fff;}</style></defs><g id="_レイヤー_1-2"><path class="cls-1" d="M30,60C13.46,60,0,46.54,0,30S13.46,0,30,0s30,13.46,30,30-13.46,30-30,30ZM30,1.46C14.27,1.46,1.46,14.27,1.46,30s12.8,28.54,28.54,28.54,28.54-12.8,28.54-28.54S45.73,1.46,30,1.46Z"/><path class="cls-1" d="M30,11.48c-10.21,0-18.52,8.31-18.52,18.52s8.31,18.52,18.52,18.52,18.52-8.31,18.52-18.52-8.31-18.52-18.52-18.52ZM30.67,47.58v-5.27c.64.12,1.54.25,2.59.25,1.48,0,3.22-.26,4.78-1.16,3.58-2.07,4.7-6.65,4.75-6.85l.16-.67-.66-.2c-.19-.06-4.72-1.38-8.3.69-1.52.88-2.57,2.2-3.31,3.45v-5c.64.12,1.54.25,2.6.25,1.48,0,3.22-.26,4.77-1.16,3.58-2.07,4.7-6.65,4.75-6.85l.16-.67-.66-.2c-.19-.06-4.72-1.38-8.3.69-2.11,1.22-3.35,3.3-4.04,4.85-.68-1.55-1.93-3.63-4.04-4.85-3.58-2.07-8.11-.75-8.31-.69l-.66.2.16.67c.05.19,1.17,4.78,4.75,6.85,1.56.9,3.29,1.16,4.77,1.16,1.05,0,1.95-.13,2.59-.25v4.98c-.74-1.25-1.79-2.57-3.3-3.44-3.58-2.07-8.12-.74-8.31-.69l-.66.2.16.67c.05.19,1.17,4.78,4.75,6.85,1.56.9,3.29,1.16,4.78,1.16,1.05,0,1.95-.13,2.58-.25v5.26c-9.34-.42-16.82-8.13-16.82-17.58s7.9-17.61,17.61-17.61,17.62,7.9,17.62,17.61-7.54,17.23-16.95,17.58ZM30.87,40.86c.43-1.26,1.58-3.91,3.84-5.22,2.27-1.31,5.13-.97,6.44-.72-.43,1.26-1.58,3.91-3.84,5.22-2.27,1.31-5.13.98-6.44.72ZM30.87,31.39c.43-1.26,1.58-3.91,3.84-5.22,2.27-1.31,5.13-.97,6.44-.72-.43,1.26-1.58,3.91-3.84,5.22-2.27,1.31-5.13.97-6.44.72ZM29.02,31.39c-1.31.26-4.17.59-6.44-.72-2.27-1.31-3.41-3.95-3.84-5.22,1.31-.26,4.17-.59,6.44.72,2.27,1.31,3.41,3.96,3.84,5.22ZM29.02,40.86c-1.32.25-4.17.59-6.44-.72-2.27-1.31-3.41-3.95-3.84-5.22,1.31-.26,4.17-.59,6.44.72,2.27,1.31,3.41,3.95,3.84,5.22Z"/><path class="cls-1" d="M30.49,14.34l-.5-.47-.5.47c-.12.11-2.9,2.78-2.9,6.17,0,3.39,2.79,6.05,2.91,6.16l.5.47.5-.47c.12-.11,2.9-2.78,2.9-6.17,0-3.39-2.79-6.05-2.91-6.16ZM29.99,25.06c-.72-.85-1.95-2.6-1.95-4.55,0-1.96,1.23-3.7,1.94-4.56.72.85,1.95,2.6,1.95,4.55,0,1.96-1.23,3.7-1.94,4.56Z"/><path class="cls-1" d="M7.64,25.56c.24.36.32.85.25,1.46l-.14,1.17,2.02.24-.14,1.17-5.61-.66.28-2.41c.06-.56.26-.98.59-1.28.33-.29.8-.41,1.4-.34.66.08,1.11.29,1.35.66ZM5.51,26.22c-.14.13-.23.34-.26.6l-.12,1.06,1.65.19.12-1.06c.03-.27-.01-.48-.13-.65-.12-.17-.32-.27-.61-.3-.29-.04-.51.01-.65.15Z"/><path class="cls-1" d="M4.98,22.8l.43-1.12,3.24,1.24c.36.14.64.2.84.18.35-.02.61-.25.78-.7.17-.44.13-.79-.11-1.04-.13-.15-.38-.29-.75-.43l-3.24-1.24.43-1.12,3.24,1.24c.56.21.96.47,1.21.76.45.54.5,1.27.15,2.18-.35.91-.87,1.42-1.57,1.53-.38.05-.85-.03-1.41-.24l-3.25-1.24Z"/><path class="cls-1" d="M9.87,13.82c.19-.12.4-.18.63-.2.19-.01.37,0,.55.05s.36.13.54.26c.22.16.39.37.52.63.13.26.15.55.06.87.24-.15.47-.21.69-.19s.49.15.81.38l.31.22c.21.15.36.24.44.28.14.06.27.06.39.01l.11.08-.76,1.06c-.12-.04-.22-.08-.29-.12-.15-.07-.29-.15-.42-.24l-.43-.3c-.3-.21-.53-.29-.69-.27-.17.03-.35.17-.54.44l-.67.94,1.8,1.29-.67.94-4.59-3.3,1.58-2.19c.23-.31.45-.52.64-.64ZM9.12,16.29l1.23.89.74-1.03c.15-.2.23-.38.26-.51.04-.24-.06-.46-.32-.64-.28-.2-.53-.25-.75-.14-.12.06-.26.19-.4.39l-.76,1.06Z"/><path class="cls-1" d="M15.62,9.52l-2.29,1.92.77.92,2.1-1.76.63.75-2.1,1.76.93,1.11,2.4-2.01.65.78-3.28,2.75-3.63-4.33,3.18-2.67.64.77Z"/><path class="cls-1" d="M16.65,7.69l1.05-.54,2.1,4.13,2.52-1.28.46.91-3.57,1.82-2.56-5.04Z"/><path class="cls-1" d="M24.45,4.63l1.29-.35-.91,3.9.55,2.05-1.14.31-.55-2.05-2.8-2.91,1.34-.36,1.77,2.08.45-2.67Z"/><path class="cls-1" d="M29.88,7.26c.19-.23.49-.44.89-.64l.12-.06c-.15-.2-.25-.4-.33-.6-.07-.2-.1-.4-.08-.61.04-.41.21-.72.5-.92.3-.21.67-.29,1.11-.25.4.04.73.19.97.45s.35.57.31.94c-.03.33-.13.6-.31.79s-.43.36-.75.51l.72,1.05c.1-.12.19-.26.25-.41.06-.15.11-.31.12-.48l.97.09c-.05.34-.16.68-.34,1.02-.1.19-.25.39-.46.61l.91,1.32-1.32-.12-.35-.51c-.21.16-.4.27-.57.34-.31.12-.65.17-1.04.13-.58-.05-1.01-.26-1.31-.63-.29-.37-.42-.75-.38-1.16.03-.34.14-.62.33-.85ZM30.82,8.7c.14.17.33.27.57.29.18.02.36,0,.53-.08s.31-.15.42-.24l-.94-1.38c-.29.16-.49.3-.59.43s-.16.28-.17.44c-.02.19.04.37.19.53ZM31.58,5.73c.04.08.13.22.27.42.17-.09.29-.17.37-.24.14-.12.22-.27.24-.43.01-.12-.02-.22-.09-.32-.07-.1-.19-.15-.35-.17-.1,0-.2.01-.29.05-.14.07-.22.19-.23.36,0,.1.02.21.08.33Z"/><path class="cls-1" d="M39.17,5.68l3.66,1.68-.41.9-2.6-1.19-.54,1.18,2.28,1.04-.41.89-2.28-1.04-.99,2.15-1.07-.49,2.35-5.13Z"/><path class="cls-1" d="M47.07,10.62c.11.2.17.41.17.64,0,.19-.02.37-.07.55-.05.18-.15.36-.29.53-.17.21-.38.38-.65.5-.27.12-.56.12-.87.02.14.24.19.47.16.69s-.17.48-.42.8l-.23.3c-.16.2-.26.35-.3.43-.06.13-.07.26-.03.39l-.09.11-1.02-.81c.05-.12.09-.21.13-.28.07-.14.16-.28.26-.41l.32-.42c.22-.29.32-.51.3-.68-.02-.17-.16-.35-.42-.56l-.91-.71-1.37,1.74-.91-.71,3.5-4.44,2.12,1.67c.3.24.5.47.61.67ZM44.63,9.76l-.94,1.19,1,.79c.2.16.37.25.5.28.24.05.46-.04.66-.29.21-.27.27-.52.17-.74-.05-.13-.18-.27-.37-.42l-1.02-.81Z"/><path class="cls-1" d="M51.19,16.69l-1.8-2.39-.96.73,1.65,2.19-.78.59-1.66-2.19-1.16.87,1.89,2.5-.81.61-2.58-3.42,4.51-3.41,2.5,3.31-.8.6Z"/><path class="cls-1" d="M49.81,20.29c-.22.13-.37.28-.45.42-.14.27-.11.63.07,1.06.11.26.23.46.36.6.24.26.51.33.8.21.17-.07.27-.21.3-.4.03-.19,0-.47-.06-.83l-.12-.62c-.11-.61-.14-1.04-.09-1.31.09-.45.39-.79.9-1,.47-.2.93-.19,1.38.02.45.21.82.65,1.11,1.32.24.55.29,1.09.17,1.61-.12.51-.46.9-1,1.15l-.44-1.04c.3-.15.47-.39.49-.7.01-.21-.04-.44-.14-.7-.12-.29-.28-.49-.46-.61-.19-.12-.38-.14-.58-.06-.19.08-.29.22-.31.43-.01.14.01.4.08.78l.17,1c.08.44.08.79,0,1.06-.11.41-.4.72-.86.91-.47.2-.95.19-1.42-.05-.47-.24-.85-.69-1.13-1.36-.29-.68-.37-1.29-.22-1.81.14-.52.48-.9,1.03-1.13l.44,1.04Z"/><path class="cls-1" d="M49.77,24.93l5.6-.78.16,1.16-2.13.3.3,2.18,2.13-.29.16,1.16-5.6.78-.16-1.16,2.5-.35-.3-2.18-2.5.35-.16-1.16Z"/><circle class="cls-1" cx="7.45" cy="35.67" r="1.34"/><circle class="cls-1" cx="52.32" cy="35.67" r="1.34"/><path class="cls-1" d="M9.65,43.5c-.18.18-.29.35-.33.51-.07.29.04.63.32,1.01.17.23.33.39.48.5.29.2.56.2.82.02.15-.11.21-.26.2-.45-.02-.19-.1-.45-.25-.78l-.26-.57c-.25-.56-.38-.97-.38-1.24-.02-.46.2-.85.64-1.18.4-.3.85-.4,1.33-.3s.94.44,1.37,1.01c.35.48.53.99.53,1.51s-.23.97-.7,1.35l-.67-.9c.26-.22.36-.48.31-.79-.04-.21-.14-.42-.3-.65-.18-.25-.38-.41-.59-.48-.21-.08-.4-.05-.57.08-.16.12-.23.28-.2.48.02.14.1.38.26.74l.4.93c.18.41.26.75.25,1.02-.02.43-.22.79-.62,1.08-.41.3-.87.4-1.38.28s-.98-.47-1.41-1.05c-.44-.59-.65-1.16-.63-1.7.02-.54.26-.98.73-1.32l.66.9Z"/><path class="cls-1" d="M12.68,49.54l-.85-.79,3.8-4.11.86.79-3.8,4.11Z"/><path class="cls-1" d="M17.37,46.29l1.05.64-.12,4.49,2.02-3.34.93.57-2.9,4.79-1-.61.11-4.58-2.06,3.4-.93-.56,2.9-4.79Z"/><path class="cls-1" d="M22.23,49.64c.56-.32,1.18-.38,1.85-.18.9.26,1.46.75,1.7,1.47.13.4.15.77.07,1.11l-1.12-.33c0-.28-.03-.5-.1-.66-.13-.29-.39-.5-.79-.61-.4-.12-.76-.05-1.09.22-.33.26-.58.69-.76,1.3-.18.6-.19,1.09-.03,1.46.16.37.42.61.8.72.39.11.72.07,1-.13.15-.11.31-.29.46-.54l1.12.33c-.27.56-.65.96-1.16,1.21-.5.25-1.06.29-1.68.11-.77-.23-1.29-.65-1.59-1.28-.29-.62-.31-1.37-.05-2.24.28-.94.74-1.59,1.38-1.95Z"/><path class="cls-1" d="M31.2,51.44l-2.96-.1-.04,1.19,2.72.09-.03.97-2.72-.09-.05,1.44,3.1.1-.03,1.01-4.24-.14.19-5.6,4.11.14-.03.99Z"/><path class="cls-1" d="M34.85,51.68l-.22-.7c.32-.12.54-.21.66-.28.19-.11.33-.25.42-.43.06-.12.09-.27.09-.44,0-.11-.01-.18-.03-.23l.87-.27,1.63,5.26-1.06.33-1.13-3.63-1.24.38Z"/><path class="cls-1" d="M38.78,49.04c.12-.49.41-.87.89-1.13.73-.41,1.41-.37,2.05.12.36.28.71.72,1.05,1.32.32.58.52,1.11.59,1.58.13.9-.18,1.56-.93,1.99-.36.2-.74.28-1.15.23-.41-.05-.75-.27-1.02-.65l.94-.53c.1.13.23.21.37.24s.3,0,.46-.09c.31-.17.43-.47.37-.88-.04-.23-.15-.53-.34-.9-.02.16-.07.29-.14.4-.12.2-.3.38-.56.53-.38.21-.8.27-1.24.17-.44-.1-.8-.39-1.08-.89-.29-.51-.38-1.02-.26-1.5ZM41.44,50.05c.14-.26.11-.56-.08-.89-.15-.27-.34-.45-.56-.54-.22-.09-.44-.07-.65.06-.16.09-.27.21-.34.37-.1.24-.06.53.13.87.16.28.34.47.53.54.2.08.41.05.65-.09.13-.07.23-.18.31-.32Z"/><path class="cls-1" d="M42.69,46.62c0-.5.22-.93.62-1.29.62-.56,1.3-.66,2.03-.32.41.2.85.55,1.3,1.06.44.5.75.97.92,1.41.32.85.16,1.56-.48,2.14-.31.27-.67.43-1.08.47-.41.04-.79-.1-1.14-.42l.8-.72c.13.1.27.16.42.16.15,0,.29-.06.43-.18.27-.24.32-.55.17-.94-.08-.22-.26-.49-.52-.81,0,.16,0,.3-.05.42-.07.23-.22.44-.44.63-.33.29-.72.44-1.17.44s-.87-.21-1.25-.64c-.39-.44-.59-.91-.57-1.41ZM45.5,47.04c.08-.28,0-.56-.27-.86-.21-.23-.43-.37-.66-.41-.23-.04-.44.02-.63.19-.14.12-.22.27-.25.43-.05.26.06.53.32.82.22.24.43.38.64.42.21.03.42-.04.62-.23.11-.1.19-.23.23-.38Z"/><path class="cls-1" d="M47.93,42.23c-.07-.05-.17-.08-.3-.09-.21,0-.38.08-.52.28-.2.29-.19.6.04.96.13.19.36.43.68.7-.05-.2-.05-.4,0-.58s.13-.37.27-.56c.29-.4.65-.62,1.11-.68.45-.06.89.06,1.31.37.42.3.69.69.83,1.17.14.48.02.98-.36,1.5-.41.56-.94.81-1.6.73-.52-.06-1.07-.3-1.65-.72-.34-.25-.61-.46-.8-.65-.34-.32-.59-.65-.73-.99-.12-.28-.18-.57-.16-.88.02-.3.13-.59.34-.88.3-.42.65-.67,1.04-.76s.77-.03,1.15.2l-.63.87ZM49.69,45.1c.24-.02.44-.13.58-.33.14-.2.18-.4.11-.62-.07-.22-.22-.41-.45-.58-.26-.19-.5-.27-.74-.24s-.41.14-.55.32c-.11.15-.16.32-.15.5,0,.27.16.51.46.73.24.17.48.25.73.23Z"/><path class="cls-1" d="M151.19,24.76c-.21.15-1.01.92-3.63.92h-4.28c-.21,0-.25-.11-.25-.27v-6.48c0-.17.07-.21.2-.21s3.76.03,3.76.03c1.28,0,1.73.65,1.83.72.08.06.17.05.17-.06v-3.35c0-.09-.06-.16-.17-.07-.07.05-.55.72-1.83.72,0,0-3.55.03-3.72.03s-.23-.09-.23-.26c0-1.06.04-5.09-.02-5.97,0-.13.07-.15.19-.15h4.24c2.11,0,2.42.57,2.66.68.08.04.17.07.17-.1,0,0,0-1.14-.05-2.42,0-.15-.07-.16-.19-.16h-12.11c-.19,0-.26.11-.15.26.13.2.82.54.82,5.08,0,3.01,0,6.07,0,9.34,0,2.81-.41,4.21-.5,4.43-.04.12-.02.22.12.22h12.8c.07,0,.16,0,.17-.18.02-.5,0-.72.04-1.34.04-.62.16-1.27.16-1.27,0-.19-.15-.17-.21-.13h0Z"/><path class="cls-1" d="M186.17,8.35h-5.54c-.08,0-.14.08-.05.22.07.09.74,1.23.74,3.69v9.59c0,2.21-1.24,3.41-3.09,3.41-1.26,0-2.21-.18-3.08-1.78-.13-.23-.19-.36-.34-.13,0,0-1.2,1.59-1.25,1.68-.06.09-.12.12.01.29,1.09,1.36,2.96,2.51,5.27,2.51,3.66,0,6.76-1.97,6.76-6.07v-9.55c0-2.5.68-3.67.69-3.68.05-.11.04-.2-.12-.2h0Z"/><path class="cls-1" d="M135.57,27.47c-.23-.22-.84-.44-2.28-3.47-5.39-11.31-6.77-14.16-7.43-15.58-.06-.12-.13-.24-.26-.24-.18,0-.27.22-.27.22,0,0-6.07,13.08-6.99,15.07-1.13,2.44-1.74,3.49-2.5,3.96-.16.1-.14.26,0,.26.13,0,.99-.02,1.81-.02s1.5.02,1.5.02c.04,0,.18-.01.16-.15-.02-.14-.13-.84.25-1.74l1.18-2.57s.05-.13.2-.13h7.07c.15,0,.2.13.2.13l.78,1.69c.4.9.72,1.81.72,2.61,0,.16.13.16.17.16,0,0,.73-.02,2.49-.02s3.14.02,3.14.02c.08,0,.12-.13.03-.21h0ZM122.03,21.04c-.15,0-.23-.11-.16-.26l2.49-5.37c.06-.14.17-.14.23,0l2.48,5.37c.07.14,0,.26-.16.26h-4.88Z"/><path class="cls-1" d="M172.7,27.47c-.23-.22-.84-.44-2.28-3.47-5.39-11.31-6.77-14.16-7.42-15.58-.06-.12-.12-.24-.26-.24-.18,0-.27.22-.27.22,0,0-6.07,13.08-6.99,15.07-1.12,2.44-1.73,3.49-2.5,3.96-.16.1-.14.26,0,.26.13,0,.98-.02,1.81-.02s1.5.02,1.5.02c.04,0,.18-.01.16-.15-.01-.14-.13-.84.25-1.74l1.18-2.57s.06-.13.21-.13h7.07c.15,0,.2.13.2.13l.78,1.69c.41.9.72,1.81.72,2.61,0,.16.12.16.17.16,0,0,.73-.02,2.49-.02s3.15.02,3.15.02c.08,0,.12-.13.03-.21h0ZM159.17,21.04c-.16,0-.23-.11-.16-.26l2.49-5.37c.06-.14.17-.14.23,0l2.49,5.37c.06.14,0,.26-.16.26h-4.89Z"/><path class="cls-1" d="M293.59,60H107.32V0h186.26v60ZM108.56,58.76h183.78V1.24H108.56v57.53Z"/><path class="cls-1" d="M193.32,17.68v-1.01h8.42v-2.38h-6.17v-1.01h6.17v-2.12h-7.26v-1.01h7.26v-2.09h2.33v2.09h7.39v1.01h-7.39v2.12h6.19v1.01h-6.19v2.38h8.58v1.01h-8.43c.51,1.26,1.52,2.76,2.54,3.75.81-.89,1.56-1.92,2.39-3.24l2.31,1.36c-1.75,1.32-2.77,1.98-3.94,2.58,1.53,1.34,3.18,2.31,5.28,3.16-.74.95-.85,1.09-1.48,2.1-1.82-.74-3.2-1.67-4.56-3.07-2.05,1.17-4.93,2.12-10.01,3.34l-.99-2.12c.58-.08.62-.08.83-.1l1.86-.29h.06v-2.81c-1.47,1.06-3.3,2-5.15,2.7l-.35-.8c2.94-1.86,5.59-4.09,7.69-6.52l.04-.04h-7.41ZM200.67,24.78c2.52-.45,3.63-.72,5.38-1.26-1.28-1.55-2.27-3.43-2.83-5.47-.93,1.05-1.54,1.69-2.56,2.6v4.13Z"/><path class="cls-1" d="M216.91,25.03c1.73-2.15,2.83-4.02,3.98-6.83l2.46,1.17c-1.92,3.12-3.28,4.58-5.84,6.31l-.6-.66ZM228.13,25.73c0,1.4-.6,2-2.06,2h-3.24v-1.18h1.96c.68-.02.91-.25.93-.93v-9.18h-8.55v-1.09h19.27v1.09h-8.32v9.29ZM219.28,9.32h15.06v1.18h-15.06v-1.18ZM231.25,18.4c2.31,1.59,3.79,3.11,5.34,5.49l-2.45,1.75c-1.2-2.66-2.19-4.44-3.65-6.6l.76-.64Z"/><path class="cls-1" d="M244.89,11.08h-3.16v-1.01h3.16v-1.85h2.21v1.85h7.04v-1.85h2.2v1.85h3.39v1.01h-3.39v7.24h4.07v1.01h-5.01c1.32,1.5,2.97,2.56,5.22,3.32-.56.99-.62,1.16-1.08,2.25-2.47-1.16-3.98-2.75-5.28-5.57h-6.31c-1.61,2.76-3.63,4.51-6.77,5.84l-.35-.78c1.9-1.32,3.29-2.91,4.45-5.06h-4.23v-1.01h3.84v-7.24ZM249.64,23.38h-3.77v-1.01h3.77v-2.27h2.23v2.27h4.04v1.01h-4.04v2.83h7.22v1.01h-16.7v-1.01h7.26v-2.83ZM254.14,11.08h-7.04v1.63h7.04v-1.63ZM247.1,15.45h7.04v-1.73h-7.04v1.73ZM254.14,16.46h-7.04v1.86h7.04v-1.86Z"/><path class="cls-1" d="M272.07,12.81c-.53.54-.91.83-1.71,1.38l-.51-.64c1.44-1.86,2.26-3.36,3.01-5.49l2.27.62c-.6.97-.83,1.34-1.3,2h3.71c.29-.82.52-1.61.74-2.56l2.34.52c-.83,1.12-1.18,1.52-1.78,2.04h5.45v1.01h-4.95v1.86h4.29v1.01h-4.29v1.86h4.29v1.01h-4.29v1.96h4.99v1.01h-8.59v2.04h8.81v1.01h-8.81v4.27h-2.16v-4.27h-8.83v-1.01h8.83v-2.04h-1.51v-7.59ZM265.47,11.76c1.32.35,2.18.74,3.34,1.48l-1.43,1.96c-.72-1.03-1.36-1.73-2.35-2.66l.44-.78ZM270.26,15.35c-.87,2.23-1.61,3.57-3.26,5.82l-1.63-1.69c1.75-1.63,2.88-2.93,4.1-4.64l.79.52ZM269.41,11.64c-.81-.97-1.51-1.63-2.64-2.52l.48-.81c1.63.41,2.43.72,3.5,1.36l-1.34,1.96ZM274.05,13.56h3.37v-1.86h-3.37v1.86ZM274.05,16.42h3.37v-1.86h-3.37v1.86ZM274.05,19.39h3.37v-1.96h-3.37v1.96Z"/><path class="cls-1" d="M127.25,51.53c-3.67-.14-4.93-.62-6.52-2.44-.95.97-1.44,1.39-3.2,2.75l-.83-2.58c.91-.24,1.49-.45,2.59-.88v-6.91h-2.46v-1.01h4.57v7.76c1.2,1.1,2.6,1.38,6.81,1.38,2.99,0,4.84-.04,8.32-.14-.33,1.01-.37,1.15-.6,2.12h-3.59l-5.1-.04ZM120.73,36.89c-1.22-1.52-2.05-2.33-3.18-3.16l.37-.76c1.73.23,2.93.66,4.33,1.55l-1.52,2.37ZM132.94,40.39v1.01h-2.83v1.42h2.14v4.09h-6.04v-4.09h2.1v-1.42h-2.76v-1.01h2.76v-1.51h-3.3v9.82h-1.9v-10.83h2.68c-.21-.89-.49-1.88-.76-2.49h-2.46v-1.01h5.55v-1.86h2.23v1.86h5.92v1.01h-2.95l-.04.08-.06.12c-.39.81-.81,1.42-1.49,2.29h3.71v8.99c.02,1.28-.56,1.84-1.94,1.86h-2.02v-1.09h1.19c.58-.02.77-.21.79-.82v-7.92h-3.37v1.51h2.83ZM130.65,37.88l.02-.06c.23-.97.38-1.63.48-2.43h-5.04c.8.52,1.32.97,2,1.77l-1.98.72h4.52ZM130.59,43.84h-2.7v2.06h2.7v-2.06Z"/><path class="cls-1" d="M156.94,33.56c2.12,2.42,5.5,4.52,9.17,5.67-.6,1.18-.68,1.34-1.14,2.62-3.67-1.53-6.35-3.88-8.58-7.48-2.35,3.46-5.73,6.23-9.66,7.86l-.44-.81c3.42-2.35,6.52-5.69,8.42-9.05l2.81.29-.6.9ZM149.06,43.59h14.32v7.74h-14.32v-7.74ZM151.2,40.02h9.94v1.09h-9.94v-1.09ZM160.96,44.68h-9.49v5.55h9.49v-5.55Z"/><path class="cls-1" d="M183.31,37.34h-7.39v-1.09h7.39v1.09ZM182.55,34.39h-5.76v-1.09h5.76v1.09ZM182.55,40.29h-5.76v-1.09h5.76v1.09ZM182.55,43.24h-5.76v-1.1h5.76v1.1ZM176.79,45.1h5.78v6.15h-5.78v-6.15ZM180.77,46.11h-2.19v4.12h2.19v-4.12ZM185.33,45.28c.04.49.04.7.04,1.11,0,1.98-.21,3.36-.74,4.81l-1.84-1.26c.87-1.61,1.28-2.97,1.49-4.79l1.06.12ZM189.42,34.6c-.08.97-.23,2.08-.44,2.89l-.02.06c1.01.43,1.53.68,2.63,1.3l-1.26,1.94c-.97-.75-1.4-1.06-1.96-1.42-.85,1.83-2.33,3.09-4.64,3.98l-.39-.68c1.67-.99,2.8-2.43,3.43-4.35-.83-.5-1.42-.81-2.54-1.36l.41-.74c1.28.31,1.86.48,2.48.68.14-.8.23-1.5.27-2.29h-3.57v-1.01h11.02c-.17,3.98-.37,6.51-.6,7.71-.23,1.16-.72,1.53-2.07,1.57h-2.33v-1.09h1.4c.58,0,.78-.21.93-.95.17-.91.37-3.32.52-6.23h-3.26ZM188.42,44.52v4.62c.02.45.16.6.62.62h1.67c.43-.02.58-.15.62-.58l.1-1.55,1.01.1-.15,2.23c-.06,1.16-.55,1.63-1.71,1.63h-2.48c-1.11,0-1.63-.5-1.6-1.61v-5.47h1.91ZM188.92,42.91c1.4.64,2.13,1.11,3.04,1.94l-1.72,1.57c-.62-1.18-1.09-1.92-1.83-2.91l.51-.6ZM192.94,45.06c1.19,1.16,2,2.35,2.79,4.09l-1.94,1.4c-.62-2.52-1.01-3.78-1.59-5.04l.75-.45Z"/><path class="cls-1" d="M216.77,43.84h5.96v1.01h-5.96v4.38c.95.06,2.33.1,4.46.1h4.1c-.47,1.05-.54,1.21-.85,2.27-6.85,0-8.42-.12-10.29-.78-1.59-.58-2.85-1.9-3.77-3.92l-.02-.06c-1.28,2.89-2.46,4.31-4.33,5.34l-.53-.66c2.08-2.35,3.25-5.63,3.59-9.9l2.54.46c-.29,1.73-.52,2.64-.91,3.84.89,1.5,2.14,2.52,3.71,2.95v-8.89h-7.04v-.95l-.19.19-1.71-1.9c1.17-1.07,1.69-1.96,2-3.38h1.01c.08.41.1.56.12.9h5.4v-2.45h2.54v2.45h8.73c-.75,1.74-1.57,2.68-3.45,3.94l-.68-.43c.54-1.03.76-1.57,1.1-2.49h-13.66c-.12,1.52-.39,2.25-1.17,3.11h16.11v1.01h-6.81v3.88Z"/><path class="cls-1" d="M238.13,44.7c-.7,1.53-1.38,2.66-2.43,3.96l-.56-.49c.95-1.72,2.31-5.78,2.7-8.09h-2.55v-1.01h2.88v-6.56h1.92v6.56h2.5v1.01h-2.5v1.94c1.43,1.03,2.3,1.96,2.96,3.22l-1.47,1.51c-.41-1.34-.76-2.27-1.49-3.81v9.1h-1.92v-7.39l-.04.06ZM235.88,34.14c.89,1.01,1.4,1.9,1.9,3.32l-1.78.8c-.15-1.38-.35-2.42-.81-3.88l.68-.25ZM240.4,37.94c.5-1.38.74-2.39.97-3.9l1.82.68c-.99,1.98-1.26,2.41-2.19,3.55l-.6-.33ZM247.73,37.77h-3.65v-1.01h3.65v-1.55h-4.29v-1.01h4.29v-1.7h2.04v1.7h4.52v1.01h-4.52v1.55h3.88v1.01h-3.88v1.63h5.18v1.01h-11.86v-1.01h4.64v-1.63ZM246.11,48.05v3.98h-2.07v-10.3h9.47v8.52c0,1.2-.52,1.69-1.71,1.69h-2.85v-1.09h1.57c.66-.02.89-.23.9-.89v-1.92h-5.32ZM251.43,42.75h-5.32v1.59h5.32v-1.59ZM251.43,47.03v-1.69h-5.32v1.69h5.32Z"/><path class="cls-1" d="M268.03,42.42c-.86-1.18-1.61-1.92-3.2-3.24l.41-.78c1.9.31,3.07.76,4.46,1.74l-1.68,2.29ZM269.99,43.4c-.62,2.91-1.28,4.98-2.77,8.57l-2.08-1.98c1.37-1.94,2.46-3.8,3.98-6.87l.87.28ZM269.23,36.8c-.85-1.11-1.53-1.82-3.1-3.15l.41-.79c1.89.38,2.99.81,4.31,1.74l-1.63,2.21ZM283.66,36.82v14.5h-12.52v-14.5h5.11v-4.23h2.13v4.23h5.28ZM276.26,37.83h-2.97v5.41h2.97v-5.41ZM276.26,44.25h-2.97v6.07h2.97v-6.07ZM278.38,43.24h3.05v-5.41h-3.05v5.41ZM278.38,50.32h3.05v-6.07h-3.05v6.07Z"/></g></svg>