<?xml version="1.0" encoding="UTF-8"?><svg id="_レイヤー_2" xmlns="http://www.w3.org/2000/svg" viewBox="0 0 20 20"><defs><style>.cls-1{fill:#1a1a1a;}</style></defs><g id="_レイヤー_1-2"><path class="cls-1" d="M10,1.8c2.67,0,2.99.01,4.04.06.98.04,1.5.21,1.86.34.47.18.8.4,1.15.75.35.35.56.68.75,1.15.14.35.3.88.34,1.86.05,1.05.06,1.37.06,4.04,0,2.67,0,2.99-.06,4.04-.04.98-.21,1.5-.34,1.86-.18.47-.4.8-.75,1.15-.35.35-.68.57-1.15.75-.35.14-.88.3-1.86.35-1.05.05-1.37.06-4.04.06-2.67,0-2.99-.01-4.04-.06-.98-.05-1.5-.21-1.86-.35-.47-.18-.8-.4-1.15-.75-.35-.35-.57-.68-.75-1.15-.14-.35-.3-.88-.34-1.86-.05-1.05-.06-1.37-.06-4.04,0-2.67,0-2.99.06-4.04.04-.97.21-1.5.34-1.86.18-.47.4-.8.75-1.15.35-.35.68-.57,1.15-.75.35-.14.88-.3,1.86-.34,1.05-.05,1.37-.06,4.04-.06h0ZM10,0c-2.72,0-3.06.01-4.12.06-1.06.05-1.79.22-2.43.47-.66.26-1.22.6-1.77,1.15-.55.55-.9,1.11-1.15,1.77-.25.64-.42,1.36-.46,2.43C.01,6.94,0,7.28,0,10c0,2.72.01,3.06.06,4.12.05,1.06.22,1.79.46,2.43.26.66.6,1.22,1.15,1.77.56.56,1.11.9,1.77,1.15.64.25,1.36.42,2.43.47,1.07.05,1.41.06,4.12.06,2.72,0,3.06-.01,4.12-.06,1.06-.05,1.79-.22,2.43-.47.66-.26,1.21-.6,1.77-1.15.55-.55.9-1.11,1.15-1.77.25-.64.42-1.36.46-2.43.05-1.07.06-1.41.06-4.12,0-2.72-.01-3.06-.06-4.12-.05-1.06-.22-1.79-.46-2.43-.26-.66-.6-1.22-1.15-1.77-.56-.55-1.11-.9-1.77-1.15-.64-.25-1.36-.42-2.43-.47C13.05.01,12.71,0,10,0h0Z"/><path class="cls-1" d="M10,4.87c-2.83,0-5.14,2.3-5.14,5.14,0,2.83,2.3,5.13,5.14,5.13,2.83,0,5.14-2.3,5.14-5.13,0-2.84-2.3-5.14-5.14-5.14h0ZM10,13.33c-1.84,0-3.33-1.49-3.33-3.33,0-1.84,1.49-3.33,3.33-3.33,1.84,0,3.33,1.49,3.33,3.33,0,1.84-1.49,3.33-3.33,3.33h0Z"/><path class="cls-1" d="M16.54,4.66c0,.66-.54,1.2-1.2,1.2s-1.2-.54-1.2-1.2c0-.66.54-1.2,1.2-1.2s1.2.54,1.2,1.2h0Z"/></g></svg>