<svg xmlns="http://www.w3.org/2000/svg" width="40" height="40" viewBox="0 0 40 40" fill="none">
  <circle cx="20" cy="20" r="20" fill="#06C755"/>
  <path d="M30 17.5c0-4.965-4.925-9-11-9s-11 4.035-11 9c0 4.447 3.938 8.175 9.25 8.875.36.075.85.24 974.27.55l-.25 1.65c-.03.175-.125.7.625.375.75-.325 4.063-2.4 5.55-4.1 1.025-1.15 1.55-2.325 1.55-3.35zm-15.25 1.25h-2.5v-5h1.25v3.75h1.25v1.25zm2.5 0h-1.25v-5h1.25v5zm4.375 0h-1.25v-3.75l-1.875 3.75h-1.25v-5h1.25v3.75l1.875-3.75h1.25v5zm5 0h-3.75v-5h3.75v1.25h-2.5v1h2.5v1.25h-2.5v1h2.5v1.5z" fill="white"/>
</svg>
