<?xml version="1.0" encoding="UTF-8"?>
<svg xmlns="http://www.w3.org/2000/svg" viewBox="0 0 155.87 40">
<defs>
<style>.cls-1{fill:#000;}</style>
</defs>
<g>
<path class="cls-1" d="M6.91,6.77s.23-1.17,1.45-1.65c1.22-.47,2.14-.7,4.19-1.59,2.06-.89,4.5-1.55,6.33-2.1C20.72.9,25.34.02,26.62,0c1.28-.02,4.17.02,4.12,1.77-.05,1.78-1.52,2.35-2.36,2.48-.83.13-1.75-.56-.4-1.01,1.23-.42,2.29-1.5.75-1.96-1.59-.46-3.96-.31-7.54.56-3.16.77-4.72,1.12-4.72,1.12,0,0,.11.56,0,.9-.1.34-2.8,4.07-3.4,4.82-.6.75-2.34,3.55-2.63,4.14-.06.12-.2.58-.16.68.04.09.41.07.76,0,0,0,4.53-1.27,6.36-1.61,1.84-.36,5.92-.64,5.98.25.08.87-.32,1.13-.56,1.17-.26.02-3.04-.65-5.32-.33-2.28.33-5.22,1.06-5.82,1.1-.58.04-1.72.18-1.72.18,0,0-1.16.78-1.96,3-.8,2.23-2,7.34-2.3,9.12-.19,1.11-.54,2.54-.52,3.71.01.71.07.97.24,1.97.17,1,.21,2.45-1.23,3.4-1.69,1.13-3.28,1.21-3.69-.1-.5-1.56-.26-5.56.77-8.43,1.05-2.86,5.3-11.14,5.3-11.14,0,0-.85,0-1.35.14-.5.14-2.92,1.63-3.75,1.89-.84.27-1.64.34-1.46-.22.25-.76,1.2-.67,1.95-.88.75-.23,5.13-2,5.46-2.44,0,0,1.38-2.15,2.12-3.14.73-1,1.97-2.44,2.76-3.49.55-.72,2.02-2.62,2.31-2.97.29-.34,1-.97,1-.97,0,0,.17-.12.17-.33,0-.21-1.16,0-1.96.39-.78.4-2.01,1.04-2.61,1.26-1.45.51-3.43,2.15-4.31,1.71Z"/>
<path class="cls-1" d="M87.3,23.09c-.33,0-.64.29-1.54,1.34-.91,1.03-4.7,4.51-6.71,4.67-2.02.19-2.24,0-1.92-2.01.31-2.03,1.78-3.53,2.24-3.99.46-.46.58-1.45.09-1.63-.51-.18-1.18-.1-1.62.29-.46.41-1.37,1.39-1.34-.58.04-1.96-.63-2.26-1.71-1.15-.38.39-.62.68-.75,1.15-.22.85-.14,1.85-.14,1.85,0,0,.25.82-2.07,1.41-3.53.9-4.13-.73-4.63-1.13-.5-.4-.89.17-.52.98.38.81.76.81.76.81,0,0,.3,1.93-.93,3.28-1.58,1.74-2.14,1.33-2.59.98-.44-.34-1.77-1.91-1.13-3.71.64-1.79,1.7-2.57,2.82-2.68,1.11-.12,3.29-.6,3.13-1.36-.16-.75-1.26-.56-1.93-.56s-1.7.27-2.99,1.15c-1.29.85-1.66,2.01-2.79,2.29-1.11.29-2.45.05-2.44-.59,0-.62.52-3.03.1-3.91-.38-.81-1.08-.71-1.27.55-.19,1.27.31,2.82.02,3.51-.3.7-1.37,3.25-3.27,4.49-.65.43-1.72,1.15-2.19,1.01-.55-.16-1.03-1.13-.89-2.09,0,0-.11-2.69,2.03-4.71.47-.45-.17-1.23-.9-.83-.73.41-1.47,1.14-1.82,1.83,0,0-1.75,1.84-2.55,2.65-.8.82-3.85,4.34-5.64,3.37-1.19-.65-.48-3,.41-3.99.91-.99,1.42-2.38.14-2.1-1.29.29-2.62,3.36-3.92,4.4-.59.46-2.06,1.21-2.83,1.33-.93.13-1.69-.9-1.24-2.32.63-1.95,1.87-2.92,4-4.53.67-.5,2.32-1.27,3.44-1.6,1.62-.5,2.87-.13,3.17.28.48.7.48,1.4-.04,1.81-.74.61-1.36.94-1.2,1.23.16.29,1.53.14,2.34-1.12.67-1.04.82-2.35-.28-2.97-1.56-.87-3.86-1.19-6.88.35-3.82,1.95-4.62,3.76-5.72,5.03-1.09,1.27-4.91,4.82-7.09,4.47-2.17-.35-2.82-4.36-1.23-8.52,0,0,3.58-2.79,5.78-7.47,2.21-4.68,1.92-6.7.92-6.95-1.31-.31-4.51,3.07-6.7,7.23-2.19,4.16-3.91,9.53-3.63,12.25.15,1.31.34,2.85,1.06,3.81.77,1.03,2.27,1.59,3.74,1.2,2.69-.75,5.78-3.29,5.78-3.29,0,0-.42,1.68.55,2.66.5.51,3.08.32,4.45-.74,1.36-1.03,2.83-2.07,2.83-2.07,0,0-.27,2.38,1.62,2.67,1.9.29,3.59-.64,5.4-2.49,1.82-1.84,2.14-1.55,2.14-1.55,0,0-.89,4.12,2.34,3.93,2.41-.15,5.37-2.43,6.4-5.99,0,0,.9.39,1.59.53.57.11,1.38,0,1.38,0,0,0-1.21,4.13.18,5.65,1.24,1.36,4.3,1.57,6.36-1.67,1.62-2.56,1.28-4.02,1.28-4.02,0,0,2.25,1.2,4.87-.71.63-.46,1.14-1.02,1.65-1.44.21-.18.98.51.91,1.21-.06.69-1.09,3.06-1.28,4.05-.17.98.07,2.93,1.84,3,1.79.05,4.84-1.29,7.44-3.76,2.62-2.49,3.79-3.71,3.79-4.06.01-.35-.32-.39-.66-.39ZM28.93,11.48c.51-.87,2.37-3.62,2.68-2.86.33.76.03,1.74-.54,2.83-.58,1.1-2.57,4.63-3.39,5.97-.8,1.33-1.23.97-1.23.97-.09-.81,1.95-6.05,2.47-6.91Z"/>
<path class="cls-1" d="M128.67,16.1s-1.02.62-1.64,1.09c-.63.46-1.69.69-1.04,1.77.66,1.06,2.28-.76,2.72-1.08.42-.32,1.45-1.39,1.18-1.59-.25-.21-.98-.32-1.22-.19Z"/>
<path class="cls-1" d="M155.49,23c-.72.29-1.96,2.24-3.92,3.71-1.97,1.47-4.16,4.15-6.75,3.17-2.58-.98-1.27-4.05-.65-4.08,0,0,.55.97,2.89.03,2.34-.95,3.85-2.58,3.61-4.58-.24-1.99-3.48-.91-4.51-.14-1.03.77-2.64,2.62-3.02,3-.38.38-1.55,1.68-3.13,2.3-1.58.62-4.12,1.37-4.62.7-.48-.66-.69-2.65-1.89-2.34-1.2.31-.62,1.85-.38,2.23.24.38,1.03.74,1.03.74,0,0,.65,2.36,0,4.5-.66,2.13-2.24,6.39-3.61,5.58-1.38-.8-.72-4.19-.45-5.62.27-1.44,1.79-7.22,2.27-7.75.48-.53,1.79-2.59,3.61-4.34,1.83-1.75,5-5.93,5.71-7.33.72-1.39,1.92-4.71.89-4.96-1.03-.24-3.37,1.89-5.47,5.03-2.1,3.15-4.71,9.08-5.02,10.06,0,0-3.13,3.38-5.06,4.71-1.92,1.34-4.13,2.03-3.81.12.31-1.93,1.8-4.27,1.8-4.27.47-.69.61-1.49.09-1.85-.52-.35-1.07.06-1.07.06,0,0-.6.49-1.22,1.35-.62.86-1.43,2.78-1.43,2.78-.41.61-.85.92-2.21,2.19-1.36,1.25-3.01,1.63-3.01,1.63-4.11.33-7.42-3.38-7.25-4.11.16-.73,1.41-2.56,2.74-4.26,1.2-1.54,3.01-4.92,3.51-6.29.5-1.37,1.65-3.61,1.93-3.68.27-.08,4.65-2.76,5.56-4.14.38-.57,1.22-1.59,1.27-2.45.08-1.18-.34-2.72-1.72-2.84,0,0-2.27,1.22-3.48,3.26-1.23,2.04-2.29,3.73-2.57,5.87,0,0-.82.22-2.17-.34-1.36-.57-1.79-1.73-2.7-1.31,0,0-1.05,1.46.32,2.14,0,0,1.58,1.06,3.15.84,0,0,.33.8-.26,1.74-.59.93-2.06,5.27-6.98,10.71,0,0-1.89-1.22-2.49-1.78-.59-.57-4.39-2.99-7.23-2.04-2.84.93-5.6,2.8-4.39,7.36,1.31,4.99,6.91,3.88,8.22,3.01.68-.45,3.41-2.27,4.05-2.55.22-.09.54-.38.91-.22.4.17.96.73,1.38,1.01.81.55,3.01,2.59,7.14,1.96,0,0,3.78-.21,5.99-3.08,0,0-.73,2.45,1.27,2.38,2-.07,3.55-.7,4.82-1.92,1.28-1.22,3.34-3.01,3.41-2.9.07.11.35.91-.45,2.58-.79,1.68-2.47,7.58-2.34,8.63.13,1.05,1,3.42,2.86,2.61,1.72-.75,3.8-4.2,4.36-6.7.49-2.13.35-2.76.28-4.75,0,0,.13-.31.4-.17.28.14,1.97.45,3.58-.21,1.61-.66,2.68-1.08,2.65-.88-.03.21-.93,3.29,1.47,4.4,2.41,1.12,5.58-1.5,6.39-2.16.83-.66,4.89-4.5,5.41-5.06.51-.56.96-1.57.24-1.3ZM144.66,24.07c.75-.88,3.03-3.19,4.02-2.81.99.37,1.05,1.4-.18,2.55-1.47,1.39-2.97,1.46-4.37,1.57,0,0-.22-.42.52-1.31ZM134.8,19c.39-.75.91-1.96.91-1.96,0,0,1.25-2.65,2.57-4.17,1.36-1.52,2.74-3.43,3.06-3.46.33-.04.62.04.28.98-.33.94-2.44,4.1-3.09,5.27-.66,1.17-3.36,4.5-3.61,4.65-.25.15-.71-.21-.13-1.31ZM118.61,7.15c1-1.24,2.53-3.19,3.02-3.18.49.02,1.16.48.62,1.57-.52,1.1-1.85,2.77-2.79,3.45-.94.68-1.2.98-1.61.9-.41-.06-.26-1.5.75-2.75ZM105.06,27.94c-.14.29-1.08.79-1.83,1.35-1.57,1.17-3.44,2.12-6.42,1.07-2.93-1.04-3.02-4.58-2.05-6.31.98-1.75,3.17-1.75,4.16-1.6,1,.15,6.14,4.77,6.14,4.77,0,0,.15.42,0,.73Z"/>
</g>
</svg>