<svg width="156" height="40" viewBox="0 0 156 40" fill="none" xmlns="http://www.w3.org/2000/svg">
<g clip-path="url(#clip0_2064_2)">
<path d="M6.90995 6.77C6.90995 6.77 7.13995 5.6 8.35995 5.12C9.57995 4.65 10.5 4.42 12.55 3.53C14.61 2.64 17.05 1.98 18.88 1.43C20.72 0.900003 25.34 0.0200033 26.62 3.31248e-06C27.9 -0.0199967 30.79 0.0200033 30.74 1.77C30.69 3.55 29.22 4.12 28.38 4.25C27.55 4.38 26.63 3.69 27.98 3.24C29.21 2.82 30.27 1.74 28.73 1.28C27.14 0.820003 24.77 0.970003 21.19 1.84C18.03 2.61 16.47 2.96 16.47 2.96C16.47 2.96 16.58 3.52 16.47 3.86C16.37 4.2 13.67 7.93 13.07 8.68C12.47 9.43 10.73 12.23 10.44 12.82C10.38 12.94 10.24 13.4 10.28 13.5C10.32 13.59 10.69 13.57 11.04 13.5C11.04 13.5 15.57 12.23 17.4 11.89C19.24 11.53 23.32 11.25 23.38 12.14C23.46 13.01 23.06 13.27 22.82 13.31C22.56 13.33 19.78 12.66 17.5 12.98C15.22 13.31 12.28 14.04 11.68 14.08C11.1 14.12 9.95995 14.26 9.95995 14.26C9.95995 14.26 8.79995 15.04 7.99995 17.26C7.19995 19.49 5.99995 24.6 5.69995 26.38C5.50995 27.49 5.15995 28.92 5.17995 30.09C5.18995 30.8 5.24995 31.06 5.41995 32.06C5.58995 33.06 5.62995 34.51 4.18995 35.46C2.49995 36.59 0.909952 36.67 0.499952 35.36C-4.81606e-05 33.8 0.239952 29.8 1.26995 26.93C2.31995 24.07 6.56995 15.79 6.56995 15.79C6.56995 15.79 5.71995 15.79 5.21995 15.93C4.71995 16.07 2.29995 17.56 1.46995 17.82C0.629952 18.09 -0.170048 18.16 0.00995183 17.6C0.259952 16.84 1.20995 16.93 1.95995 16.72C2.70995 16.49 7.08995 14.72 7.41995 14.28C7.41995 14.28 8.79995 12.13 9.53995 11.14C10.27 10.14 11.51 8.7 12.3 7.65C12.85 6.93 14.32 5.03 14.61 4.68C14.9 4.34 15.61 3.71 15.61 3.71C15.61 3.71 15.78 3.59 15.78 3.38C15.78 3.17 14.62 3.38 13.82 3.77C13.04 4.17 11.81 4.81 11.21 5.03C9.75995 5.54 7.77995 7.18 6.89995 6.74L6.90995 6.77Z" fill="#042C1B"/>
<path d="M87.2999 23.09C86.9699 23.09 86.6599 23.38 85.7599 24.43C84.8499 25.46 81.0599 28.94 79.0499 29.1C77.0299 29.29 76.8099 29.1 77.1299 27.09C77.4399 25.06 78.9099 23.56 79.3699 23.1C79.8299 22.64 79.9499 21.65 79.4599 21.47C78.9499 21.29 78.2799 21.37 77.8399 21.76C77.3799 22.17 76.4699 23.15 76.4999 21.18C76.5399 19.22 75.8699 18.92 74.7899 20.03C74.4099 20.42 74.1699 20.71 74.0399 21.18C73.8199 22.03 73.8999 23.03 73.8999 23.03C73.8999 23.03 74.1499 23.85 71.8299 24.44C68.2999 25.34 67.6999 23.71 67.1999 23.31C66.6999 22.91 66.3099 23.48 66.6799 24.29C67.0599 25.1 67.4399 25.1 67.4399 25.1C67.4399 25.1 67.7399 27.03 66.5099 28.38C64.9299 30.12 64.3699 29.71 63.9199 29.36C63.4799 29.02 62.1499 27.45 62.7899 25.65C63.4299 23.86 64.4899 23.08 65.6099 22.97C66.7199 22.85 68.8999 22.37 68.7399 21.61C68.5799 20.86 67.4799 21.05 66.8099 21.05C66.1399 21.05 65.1099 21.32 63.8199 22.2C62.5299 23.05 62.1599 24.21 61.0299 24.49C59.9199 24.78 58.5799 24.54 58.5899 23.9C58.5899 23.28 59.1099 20.87 58.6899 19.99C58.3099 19.18 57.6099 19.28 57.4199 20.54C57.2299 21.81 57.7299 23.36 57.4399 24.05C57.1399 24.75 56.0699 27.3 54.1699 28.54C53.5199 28.97 52.4499 29.69 51.9799 29.55C51.4299 29.39 50.9499 28.42 51.0899 27.46C51.0899 27.46 50.9799 24.77 53.1199 22.75C53.5899 22.3 52.9499 21.52 52.2199 21.92C51.4899 22.33 50.7499 23.06 50.3999 23.75C50.3999 23.75 48.6499 25.59 47.8499 26.4C47.0499 27.22 43.9999 30.74 42.2099 29.77C41.0199 29.12 41.7299 26.77 42.6199 25.78C43.5299 24.79 44.0399 23.4 42.7599 23.68C41.4699 23.97 40.1399 27.04 38.8399 28.08C38.2499 28.54 36.7799 29.29 36.0099 29.41C35.0799 29.54 34.3199 28.51 34.7699 27.09C35.3999 25.14 36.6399 24.17 38.7699 22.56C39.4399 22.06 41.0899 21.29 42.2099 20.96C43.8299 20.46 45.0799 20.83 45.3799 21.24C45.8599 21.94 45.8599 22.64 45.3399 23.05C44.5999 23.66 43.9799 23.99 44.1399 24.28C44.2999 24.57 45.6699 24.42 46.4799 23.16C47.1499 22.12 47.2999 20.81 46.1999 20.19C44.6399 19.32 42.3399 19 39.3199 20.54C35.4999 22.49 34.6999 24.3 33.5999 25.57C32.5099 26.84 28.6899 30.39 26.5099 30.04C24.3399 29.69 23.6899 25.68 25.2799 21.52C25.2799 21.52 28.8599 18.73 31.0599 14.05C33.2699 9.37 32.9799 7.35 31.9799 7.1C30.6699 6.79 27.4699 10.17 25.2799 14.33C23.0899 18.49 21.3699 23.86 21.6499 26.58C21.7999 27.89 21.9899 29.43 22.7099 30.39C23.4799 31.42 24.9799 31.98 26.4499 31.59C29.1399 30.84 32.2299 28.3 32.2299 28.3C32.2299 28.3 31.8099 29.98 32.7799 30.96C33.2799 31.47 35.8599 31.28 37.2299 30.22C38.5899 29.19 40.0599 28.15 40.0599 28.15C40.0599 28.15 39.7899 30.53 41.6799 30.82C43.5799 31.11 45.2699 30.18 47.0799 28.33C48.8999 26.49 49.2199 26.78 49.2199 26.78C49.2199 26.78 48.3299 30.9 51.5599 30.71C53.9699 30.56 56.9299 28.28 57.9599 24.72C57.9599 24.72 58.8599 25.11 59.5499 25.25C60.1199 25.36 60.9299 25.25 60.9299 25.25C60.9299 25.25 59.7199 29.38 61.1099 30.9C62.3499 32.26 65.4099 32.47 67.4699 29.23C69.0899 26.67 68.7499 25.21 68.7499 25.21C68.7499 25.21 70.9999 26.41 73.6199 24.5C74.2499 24.04 74.7599 23.48 75.2699 23.06C75.4799 22.88 76.2499 23.57 76.1799 24.27C76.1199 24.96 75.0899 27.33 74.8999 28.32C74.7299 29.3 74.9699 31.25 76.7399 31.32C78.5299 31.37 81.5799 30.03 84.1799 27.56C86.7999 25.07 87.9699 23.85 87.9699 23.5C87.9799 23.15 87.6499 23.11 87.3099 23.11L87.2999 23.09ZM28.9299 11.48C29.4399 10.61 31.2999 7.86 31.6099 8.62C31.9399 9.38 31.6399 10.36 31.0699 11.45C30.4899 12.55 28.4999 16.08 27.6799 17.42C26.8799 18.75 26.4499 18.39 26.4499 18.39C26.3599 17.58 28.3999 12.34 28.9199 11.48H28.9299Z" fill="#042C1B"/>
<path d="M128.67 16.1C128.67 16.1 127.65 16.72 127.03 17.19C126.4 17.65 125.34 17.88 125.99 18.96C126.65 20.02 128.27 18.2 128.71 17.88C129.13 17.56 130.16 16.49 129.89 16.29C129.64 16.08 128.91 15.97 128.67 16.1Z" fill="#042C1B"/>
<path d="M155.49 23C154.77 23.29 153.53 25.24 151.57 26.71C149.6 28.18 147.41 30.86 144.82 29.88C142.24 28.9 143.55 25.83 144.17 25.8C144.17 25.8 144.72 26.77 147.06 25.83C149.4 24.88 150.91 23.25 150.67 21.25C150.43 19.26 147.19 20.34 146.16 21.11C145.13 21.88 143.52 23.73 143.14 24.11C142.76 24.49 141.59 25.79 140.01 26.41C138.43 27.03 135.89 27.78 135.39 27.11C134.91 26.45 134.7 24.46 133.5 24.77C132.3 25.08 132.88 26.62 133.12 27C133.36 27.38 134.15 27.74 134.15 27.74C134.15 27.74 134.8 30.1 134.15 32.24C133.49 34.37 131.91 38.63 130.54 37.82C129.16 37.02 129.82 33.63 130.09 32.2C130.36 30.76 131.88 24.98 132.36 24.45C132.84 23.92 134.15 21.86 135.97 20.11C137.8 18.36 140.97 14.18 141.68 12.78C142.4 11.39 143.6 8.07 142.57 7.82C141.54 7.58 139.2 9.71 137.1 12.85C135 16 132.39 21.93 132.08 22.91C132.08 22.91 128.95 26.29 127.02 27.62C125.1 28.96 122.89 29.65 123.21 27.74C123.52 25.81 125.01 23.47 125.01 23.47C125.48 22.78 125.62 21.98 125.1 21.62C124.58 21.27 124.03 21.68 124.03 21.68C124.03 21.68 123.43 22.17 122.81 23.03C122.19 23.89 121.38 25.81 121.38 25.81C120.97 26.42 120.53 26.73 119.17 28C117.81 29.25 116.16 29.63 116.16 29.63C112.05 29.96 108.74 26.25 108.91 25.52C109.07 24.79 110.32 22.96 111.65 21.26C112.85 19.72 114.66 16.34 115.16 14.97C115.66 13.6 116.81 11.36 117.09 11.29C117.36 11.21 121.74 8.53 122.65 7.15C123.03 6.58 123.87 5.56 123.92 4.7C124 3.52 123.58 1.98 122.2 1.86C122.2 1.86 119.93 3.08 118.72 5.12C117.49 7.16 116.43 8.85 116.15 10.99C116.15 10.99 115.33 11.21 113.98 10.65C112.62 10.08 112.19 8.92 111.28 9.34C111.28 9.34 110.23 10.8 111.6 11.48C111.6 11.48 113.18 12.54 114.75 12.32C114.75 12.32 115.08 13.12 114.49 14.06C113.9 14.99 112.43 19.33 107.51 24.77C107.51 24.77 105.62 23.55 105.02 22.99C104.43 22.42 100.63 20 97.79 20.95C94.95 21.88 92.19 23.75 93.4 28.31C94.71 33.3 100.31 32.19 101.62 31.32C102.3 30.87 105.03 29.05 105.67 28.77C105.89 28.68 106.21 28.39 106.58 28.55C106.98 28.72 107.54 29.28 107.96 29.56C108.77 30.11 110.97 32.15 115.1 31.52C115.1 31.52 118.88 31.31 121.09 28.44C121.09 28.44 120.36 30.89 122.36 30.82C124.36 30.75 125.91 30.12 127.18 28.9C128.46 27.68 130.52 25.89 130.59 26C130.66 26.11 130.94 26.91 130.14 28.58C129.35 30.26 127.67 36.16 127.8 37.21C127.93 38.26 128.8 40.63 130.66 39.82C132.38 39.07 134.46 35.62 135.02 33.12C135.51 30.99 135.37 30.36 135.3 28.37C135.3 28.37 135.43 28.06 135.7 28.2C135.98 28.34 137.67 28.65 139.28 27.99C140.89 27.33 141.96 26.91 141.93 27.11C141.9 27.32 141 30.4 143.4 31.51C145.81 32.63 148.98 30.01 149.79 29.35C150.62 28.69 154.68 24.85 155.2 24.29C155.71 23.73 156.16 22.72 155.44 22.99L155.49 23ZM144.66 24.07C145.41 23.19 147.69 20.88 148.68 21.26C149.67 21.63 149.73 22.66 148.5 23.81C147.03 25.2 145.53 25.27 144.13 25.38C144.13 25.38 143.91 24.96 144.65 24.07H144.66ZM134.8 19C135.19 18.25 135.71 17.04 135.71 17.04C135.71 17.04 136.96 14.39 138.28 12.87C139.64 11.35 141.02 9.44 141.34 9.41C141.67 9.37 141.96 9.45 141.62 10.39C141.29 11.33 139.18 14.49 138.53 15.66C137.87 16.83 135.17 20.16 134.92 20.31C134.67 20.46 134.21 20.1 134.79 19H134.8ZM118.61 7.15C119.61 5.91 121.14 3.96 121.63 3.97C122.12 3.99 122.79 4.45 122.25 5.54C121.73 6.64 120.4 8.31 119.46 8.99C118.52 9.67 118.26 9.97 117.85 9.89C117.44 9.83 117.59 8.39 118.6 7.14L118.61 7.15ZM105.06 27.94C104.92 28.23 103.98 28.73 103.23 29.29C101.66 30.46 99.79 31.41 96.81 30.36C93.88 29.32 93.79 25.78 94.76 24.05C95.74 22.3 97.93 22.3 98.92 22.45C99.92 22.6 105.06 27.22 105.06 27.22C105.06 27.22 105.21 27.64 105.06 27.95V27.94Z" fill="#042C1B"/>
</g>
<defs>
<clipPath id="clip0_2064_2">
<rect width="155.87" height="40" fill="white"/>
</clipPath>
</defs>
</svg>
