<?xml version="1.0" encoding="UTF-8"?><svg id="_レイヤー_2" xmlns="http://www.w3.org/2000/svg" viewBox="0 0 155.39 50.54"><defs><style>.cls-1{fill:#0f2b0f;}</style></defs><g id="_レイヤー_1-2"><path class="cls-1" d="M6.89,6.75s.22-1.17,1.45-1.64c1.22-.47,2.13-.7,4.17-1.59,2.05-.88,4.49-1.54,6.31-2.1C20.66.89,25.26.02,26.54,0c1.28-.02,4.16.02,4.11,1.76-.05,1.78-1.52,2.34-2.36,2.47-.83.13-1.75-.56-.4-1,1.23-.42,2.28-1.49.75-1.95-1.59-.46-3.94-.31-7.51.56-3.15.77-4.7,1.12-4.7,1.12,0,0,.11.56,0,.9-.1.34-2.79,4.06-3.39,4.8-.6.74-2.33,3.54-2.62,4.13-.06.12-.2.58-.16.68.04.09.41.07.76,0,0,0,4.52-1.26,6.34-1.6,1.84-.36,5.9-.63,5.96.25.08.86-.32,1.12-.56,1.17-.26.02-3.03-.65-5.3-.33-2.27.33-5.2,1.06-5.8,1.1-.58.04-1.71.18-1.71.18,0,0-1.16.77-1.95,2.99-.8,2.22-1.99,7.32-2.29,9.1-.19,1.11-.53,2.53-.52,3.7.01.71.07.97.24,1.96.17.99.21,2.44-1.22,3.39-1.68,1.12-3.27,1.21-3.68-.1-.5-1.55-.26-5.55.77-8.4,1.04-2.85,5.28-11.11,5.28-11.11,0,0-.85,0-1.34.14-.5.14-2.92,1.62-3.74,1.88-.84.27-1.63.33-1.45-.22.25-.76,1.19-.67,1.94-.88.75-.23,5.11-1.99,5.44-2.43,0,0,1.38-2.14,2.11-3.13.73-1,1.96-2.43,2.75-3.48.54-.72,2.02-2.61,2.3-2.97.29-.34.99-.97.99-.97,0,0,.17-.12.17-.33,0-.21-1.15,0-1.95.39-.78.4-2,1.04-2.6,1.26-1.44.51-3.41,2.14-4.29,1.71Z"/><path class="cls-1" d="M87.03,23.02c-.33,0-.64.29-1.54,1.33-.91,1.03-4.69,4.49-6.69,4.66-2.01.19-2.23,0-1.92-2.01.31-2.03,1.78-3.52,2.23-3.98.46-.46.58-1.45.09-1.62-.51-.18-1.17-.1-1.62.29-.46.41-1.36,1.38-1.33-.58.04-1.96-.63-2.25-1.7-1.15-.38.39-.62.68-.75,1.15-.22.85-.13,1.85-.13,1.85,0,0,.25.82-2.07,1.4-3.52.9-4.12-.73-4.62-1.13-.5-.4-.89.17-.52.98.38.8.75.8.75.8,0,0,.3,1.92-.93,3.27-1.58,1.74-2.13,1.32-2.58.97-.44-.34-1.77-1.9-1.13-3.7.64-1.78,1.69-2.57,2.81-2.68,1.11-.12,3.28-.6,3.12-1.36-.16-.75-1.26-.55-1.92-.55s-1.69.27-2.98,1.15c-1.29.85-1.65,2-2.78,2.29-1.11.29-2.44.05-2.43-.59,0-.62.51-3.02.1-3.89-.37-.81-1.08-.71-1.27.55-.19,1.27.31,2.81.02,3.5-.3.7-1.37,3.24-3.26,4.47-.65.43-1.72,1.15-2.19,1-.55-.16-1.02-1.12-.89-2.09,0,0-.11-2.68,2.02-4.7.47-.45-.17-1.23-.89-.82-.73.41-1.46,1.13-1.81,1.83,0,0-1.75,1.84-2.54,2.64-.8.81-3.83,4.32-5.62,3.36-1.18-.65-.48-2.99.41-3.97.91-.98,1.42-2.37.14-2.09-1.28.29-2.61,3.35-3.9,4.39-.58.46-2.06,1.21-2.82,1.32-.93.13-1.68-.9-1.24-2.31.63-1.94,1.86-2.91,3.99-4.52.67-.5,2.31-1.27,3.43-1.6,1.61-.5,2.86-.13,3.16.28.48.69.48,1.39-.04,1.81-.74.61-1.35.94-1.2,1.22.16.29,1.53.14,2.34-1.11.67-1.04.82-2.35-.28-2.96-1.55-.86-3.84-1.18-6.86.35-3.81,1.94-4.61,3.75-5.7,5.01-1.08,1.27-4.89,4.8-7.06,4.46-2.16-.35-2.81-4.34-1.23-8.5,0,0,3.56-2.78,5.76-7.45,2.2-4.67,1.92-6.68.92-6.93-1.31-.3-4.5,3.06-6.67,7.21-2.19,4.14-3.9,9.5-3.61,12.21.15,1.31.34,2.84,1.05,3.8.77,1.03,2.26,1.59,3.73,1.19,2.69-.75,5.77-3.28,5.77-3.28,0,0-.42,1.67.55,2.65.49.51,3.07.32,4.43-.74,1.35-1.03,2.82-2.07,2.82-2.07,0,0-.27,2.37,1.62,2.66,1.89.29,3.58-.64,5.38-2.48,1.81-1.84,2.14-1.55,2.14-1.55,0,0-.89,4.11,2.33,3.92,2.4-.15,5.35-2.42,6.38-5.97,0,0,.9.39,1.58.53.57.11,1.38,0,1.38,0,0,0-1.21,4.12.18,5.63,1.23,1.36,4.28,1.57,6.34-1.67,1.62-2.56,1.28-4.01,1.28-4.01,0,0,2.24,1.2,4.85-.71.62-.46,1.14-1.02,1.64-1.44.21-.18.98.51.91,1.21-.06.69-1.09,3.05-1.28,4.04-.17.98.07,2.92,1.84,2.99,1.78.05,4.83-1.28,7.42-3.75,2.61-2.48,3.77-3.7,3.77-4.05.01-.35-.32-.39-.66-.39ZM28.84,11.45c.51-.87,2.36-3.6,2.68-2.86.33.76.03,1.73-.54,2.83-.58,1.1-2.57,4.62-3.38,5.95-.8,1.33-1.23.97-1.23.97-.09-.8,1.94-6.03,2.46-6.89Z"/><path class="cls-1" d="M128.27,16.05s-1.02.62-1.64,1.09c-.62.46-1.69.69-1.04,1.77.66,1.06,2.27-.76,2.71-1.08.42-.32,1.44-1.38,1.18-1.58-.25-.21-.98-.32-1.21-.19Z"/><path class="cls-1" d="M155.01,22.93c-.72.29-1.95,2.24-3.9,3.7-1.96,1.47-4.15,4.14-6.73,3.16-2.57-.97-1.26-4.03-.65-4.07,0,0,.55.97,2.88.03,2.33-.94,3.84-2.57,3.6-4.56-.24-1.99-3.47-.9-4.49-.14-1.03.76-2.64,2.61-3.02,2.99-.38.38-1.55,1.67-3.12,2.3-1.58.62-4.11,1.36-4.6.7-.48-.66-.68-2.64-1.88-2.33-1.2.31-.62,1.84-.38,2.22.24.38,1.03.74,1.03.74,0,0,.65,2.36,0,4.49-.65,2.12-2.24,6.37-3.6,5.57-1.37-.8-.72-4.18-.44-5.6.27-1.43,1.78-7.2,2.26-7.73.47-.53,1.78-2.58,3.6-4.32,1.82-1.74,4.98-5.91,5.7-7.31.72-1.38,1.91-4.69.89-4.94-1.02-.24-3.36,1.88-5.45,5.01-2.09,3.14-4.7,9.05-5.01,10.03,0,0-3.12,3.37-5.04,4.69-1.92,1.33-4.11,2.02-3.8.12.3-1.92,1.79-4.26,1.79-4.26.47-.68.61-1.49.09-1.84-.52-.35-1.06.06-1.06.06,0,0-.59.49-1.22,1.34-.61.85-1.43,2.77-1.43,2.77-.41.61-.85.92-2.21,2.18-1.35,1.24-3,1.63-3,1.63-4.1.33-7.39-3.37-7.23-4.1.16-.73,1.41-2.55,2.73-4.25,1.2-1.54,3-4.9,3.5-6.27.5-1.37,1.65-3.59,1.93-3.67.26-.08,4.63-2.75,5.55-4.13.38-.57,1.21-1.58,1.27-2.44.08-1.17-.34-2.71-1.71-2.83,0,0-2.26,1.22-3.47,3.25-1.22,2.03-2.28,3.71-2.56,5.85,0,0-.82.22-2.16-.34-1.36-.56-1.79-1.72-2.69-1.31,0,0-1.04,1.46.32,2.14,0,0,1.57,1.06,3.14.84,0,0,.33.8-.26,1.74-.59.93-2.06,5.26-6.95,10.68,0,0-1.89-1.21-2.48-1.77-.59-.57-4.38-2.98-7.21-2.04-2.83.93-5.59,2.79-4.37,7.34,1.31,4.97,6.89,3.87,8.19,3,.67-.45,3.4-2.26,4.04-2.54.22-.09.54-.38.91-.22.4.17.96.72,1.38,1.01.81.55,3,2.59,7.12,1.96,0,0,3.77-.21,5.97-3.07,0,0-.73,2.44,1.26,2.37,1.99-.07,3.53-.7,4.8-1.91,1.27-1.22,3.33-3,3.4-2.89.07.11.35.91-.45,2.58-.79,1.67-2.47,7.55-2.33,8.6.13,1.04.99,3.41,2.85,2.61,1.72-.75,3.79-4.19,4.35-6.68.49-2.13.34-2.75.28-4.73,0,0,.13-.31.4-.17.27.14,1.96.45,3.57-.21,1.61-.66,2.67-1.08,2.64-.88-.03.21-.93,3.27,1.47,4.39,2.4,1.12,5.56-1.49,6.37-2.16.83-.66,4.88-4.49,5.39-5.05.51-.56.96-1.57.24-1.29ZM144.21,24c.74-.88,3.03-3.18,4.01-2.8.99.37,1.05,1.39-.18,2.54-1.47,1.39-2.96,1.45-4.36,1.56,0,0-.22-.42.52-1.3ZM134.38,18.95c.39-.75.91-1.96.91-1.96,0,0,1.24-2.64,2.56-4.16,1.35-1.52,2.73-3.41,3.05-3.45.32-.04.62.04.28.98-.33.94-2.43,4.09-3.08,5.26-.66,1.17-3.35,4.48-3.6,4.63-.25.15-.71-.21-.13-1.3ZM118.25,7.13c1-1.24,2.53-3.18,3.02-3.17.49.02,1.15.48.62,1.57-.52,1.1-1.84,2.77-2.78,3.44-.93.68-1.19.98-1.6.9-.41-.06-.26-1.5.75-2.75ZM104.74,27.86c-.14.29-1.08.79-1.82,1.35-1.56,1.17-3.43,2.11-6.4,1.06-2.92-1.04-3.01-4.56-2.05-6.3.98-1.74,3.16-1.74,4.15-1.6,1,.15,6.12,4.75,6.12,4.75,0,0,.15.42,0,.73Z"/><path class="cls-1" d="M9.19,44.45h-2.31v1.68h2.23v.96h-2.23v3.05h-1.02v-6.64h3.33v.96Z"/><path class="cls-1" d="M17.57,46.82c0,1.95-1.46,3.44-3.45,3.44s-3.45-1.49-3.45-3.44,1.46-3.44,3.45-3.44,3.45,1.49,3.45,3.44ZM16.56,46.82c0-1.47-1.02-2.51-2.44-2.51s-2.44,1.04-2.44,2.51,1.02,2.51,2.44,2.51,2.44-1.04,2.44-2.51Z"/><path class="cls-1" d="M20.67,43.5c.81,0,1.32.1,1.75.39.73.49.79,1.27.79,1.56,0,.96-.59,1.65-1.47,1.85l2.07,2.84h-1.22l-1.9-2.72h-.18v2.72h-1.02v-6.64h1.19ZM20.5,46.54h.32c.28,0,1.41-.03,1.41-1.09,0-.94-.89-1.03-1.38-1.03h-.35v2.11Z"/><path class="cls-1" d="M29.4,46.12h2.85v-2.63h1.02v6.64h-1.02v-3.06h-2.85v3.06h-1.02v-6.64h1.02v2.63Z"/><path class="cls-1" d="M39.16,44.45h-2.65v1.68h2.57v.96h-2.57v2.09h2.65v.96h-3.66v-6.64h3.66v.96Z"/><path class="cls-1" d="M45.01,48.53h-2.84l-.73,1.6h-1.1l3.3-7.03,3.15,7.03h-1.09l-.7-1.6ZM44.6,47.58l-.99-2.25-1.03,2.25h2.01Z"/><path class="cls-1" d="M49.29,43.5v5.68h1.95v.96h-2.97v-6.64h1.02Z"/><path class="cls-1" d="M54.67,44.45v5.68h-1.02v-5.68h-1.52v-.96h4.06v.96h-1.52Z"/><path class="cls-1" d="M58.74,46.12h2.85v-2.63h1.02v6.64h-1.02v-3.06h-2.85v3.06h-1.02v-6.64h1.02v2.63Z"/><path class="cls-1" d="M66.22,47.27l-2.18-3.77h1.16l1.53,2.66,1.53-2.66h1.16l-2.18,3.77v2.87h-1.02v-2.87Z"/><path class="cls-1" d="M79,47.7l-.79.91,1.23,1.53h-1.23l-.66-.82c-.15.16-.35.34-.56.49-.41.29-.83.46-1.45.46-1.24,0-1.99-.83-1.99-1.9,0-.88.45-1.33.96-1.71.18-.13.47-.33.53-.37-.23-.23-.66-.74-.66-1.37,0-.76.48-1.53,1.57-1.53s1.59.73,1.59,1.43c0,.43-.17.71-.29.87-.16.21-.39.44-.83.77l1.17,1.43.76-.86.65.68ZM75.62,47.01c-.22.12-.54.34-.73.55-.28.3-.36.61-.36.85,0,.54.41,1.01,1.04,1.01.28,0,.51-.1.75-.26.21-.15.5-.43.62-.55l-1.31-1.59ZM76.2,45.47c.24-.17.4-.41.4-.66,0-.29-.19-.6-.66-.6-.41,0-.64.25-.64.59,0,.23.12.45.23.58l.3.36.37-.27Z"/><path class="cls-1" d="M86.69,44.97c-.06-.15-.15-.29-.3-.42-.21-.17-.43-.24-.72-.24-.62,0-.94.37-.94.8,0,.2.07.55.72.81l.67.27c1.23.5,1.56,1.19,1.56,1.95,0,1.26-.9,2.13-2.14,2.13-.77,0-1.22-.29-1.56-.67-.36-.4-.52-.84-.56-1.29l1.01-.22c0,.33.12.64.28.85.19.24.47.4.87.4.62,0,1.1-.45,1.1-1.12s-.52-.96-.96-1.14l-.64-.27c-.55-.23-1.35-.69-1.35-1.68,0-.9.7-1.75,1.94-1.75.72,0,1.12.27,1.33.45.18.16.37.39.51.67l-.82.48Z"/><path class="cls-1" d="M89.4,50.14l1.39-7.14,2.31,5.16,2.33-5.16,1.25,7.14h-1.04l-.68-4-1.93,4.31-1.91-4.32-.7,4.01h-1.04Z"/><path class="cls-1" d="M99.73,43.5v6.64h-1.02v-6.64h1.02Z"/><path class="cls-1" d="M102.97,43.5v5.68h1.95v.96h-2.97v-6.64h1.02Z"/><path class="cls-1" d="M107.53,43.5v6.64h-1.02v-6.64h1.02Z"/><path class="cls-1" d="M109.76,50.14v-7.09l4.82,5.05v-4.6h1.02v7.05l-4.82-5.05v4.64h-1.02Z"/><path class="cls-1" d="M121.25,46.68h2.74v.05c0,1.14-.34,2.06-.99,2.69-.69.67-1.5.85-2.26.85-.97,0-1.65-.28-2.26-.91-.65-.67-.99-1.55-.99-2.51,0-1.04.42-1.93.97-2.48.57-.58,1.47-1,2.5-1,.6,0,1.22.13,1.73.42.55.31.89.7,1.08,1l-.81.57c-.2-.28-.5-.58-.82-.76-.37-.22-.77-.29-1.18-.29-.87,0-1.42.36-1.75.69-.44.44-.71,1.15-.71,1.86,0,.67.25,1.33.69,1.8.46.49,1.03.67,1.66.67.58,0,1.06-.17,1.48-.59.37-.36.52-.75.56-1.13h-1.65v-.94Z"/><path class="cls-1" d="M129.87,43.5v5.68h1.95v.96h-2.97v-6.64h1.02Z"/><path class="cls-1" d="M134.43,43.5v6.64h-1.02v-6.64h1.02Z"/><path class="cls-1" d="M139.98,44.45h-2.31v1.68h2.23v.96h-2.23v3.05h-1.02v-6.64h3.33v.96Z"/><path class="cls-1" d="M145.44,44.45h-2.65v1.68h2.57v.96h-2.57v2.09h2.65v.96h-3.66v-6.64h3.66v.96Z"/></g></svg>