<svg width="64" height="92" viewBox="0 0 64 92" fill="none" xmlns="http://www.w3.org/2000/svg">
<g clip-path="url(#clip0_7165_2)">
<path d="M17.6465 68.1514C20.2998 71.5424 22.7149 75.1142 24.8742 78.841C26.7177 82.346 27.4862 84.7227 28.8335 88.9459C29.6597 91.2793 30.4065 91.9757 32.012 91.9757C33.7615 91.9757 34.5552 90.791 35.1685 88.9587C36.442 84.9704 37.4412 81.9266 39.0177 79.0506C42.1112 73.498 45.9552 68.5638 49.7322 63.8217C50.7547 62.4795 57.3657 54.6605 60.342 48.491C60.342 48.491 64 41.7138 64 32.2489C64 23.3953 60.3925 17.2549 60.3925 17.2549L50.0062 20.044L43.6987 36.702L42.1382 38.999L41.8262 39.4151L41.4112 39.936L40.6827 40.768L39.6417 41.8116L34.025 46.4001L19.9825 54.5302L17.6465 68.1514Z" fill="#34A853"/>
<path d="M3.15332 47.3519C6.58057 55.2015 13.1896 62.1017 17.6611 68.1572L41.4113 39.947C41.4113 39.947 38.0653 44.3349 31.9958 44.3349C25.2351 44.3349 19.7733 38.9215 19.7733 32.0954C19.7733 27.4145 22.5818 24.1987 22.5818 24.1987L6.45957 28.5305L3.15332 47.3519Z" fill="#FBBC04"/>
<path d="M41.6766 1.45068C49.5646 4.00086 56.3161 9.35466 60.3998 17.2494L41.4186 39.9305C41.4186 39.9305 44.2271 36.6566 44.2271 32.0047C44.2271 25.0197 38.3613 19.8015 32.0246 19.8015C26.0323 19.8015 22.5908 24.1822 22.5908 24.1822V9.89338L41.6766 1.45068Z" fill="#4285F4"/>
<path d="M7.50391 11.4724C12.2152 5.82032 20.5052 0 31.9342 0C37.4792 0 41.6567 1.45972 41.6567 1.45972L22.5727 24.1947H9.05141L7.50391 11.4724Z" fill="#1A73E8"/>
<path d="M3.153 47.3519C3.153 47.3519 0 41.1606 0 32.1912C0 23.7139 3.2865 16.3038 7.50375 11.4727L22.5833 24.197L3.153 47.3519Z" fill="#EA4335"/>
</g>
<defs>
<clipPath id="clip0_7165_2">
<rect width="64" height="92" fill="white"/>
</clipPath>
</defs>
</svg>
