<svg xmlns="http://www.w3.org/2000/svg" width="40" height="40" viewBox="0 0 40 40" fill="none">
  <circle cx="20" cy="20" r="20" fill="#000000"/>
  <path d="M23.5 11h-3v12.5c0 1.38-1.12 2.5-2.5 2.5s-2.5-1.12-2.5-2.5 1.12-2.5 2.5-2.5c.28 0 .55.05.8.13V18.1c-.26-.03-.53-.05-.8-.05-2.76 0-5 2.24-5 5s2.24 5 5 5 5-2.24 5-5V16.65c1.09.79 2.44 1.25 3.9 1.25v-2.5c-1.93 0-3.5-1.57-3.5-3.5V11h-.4z" fill="white"/>
  <path d="M26.9 14.65v2.5c-1.46 0-2.81-.46-3.9-1.25v6.6c0 2.76-2.24 5-5 5s-5-2.24-5-5 2.24-5 5-5c.27 0 .54.02.8.05v2.55c-.25-.08-.52-.13-.8-.13-1.38 0-2.5 1.12-2.5 2.5s1.12 2.5 2.5 2.5 2.5-1.12 2.5-2.5V11h3v.9c0 1.93 1.57 3.5 3.5 3.5.4 0 0 0 0 0-.15 0-.1.25 0-.25z" fill="#EE1D52"/>
  <path d="M23 11.9V11h.5v.9c0 1.93 1.57 3.5 3.5 3.5v2.5c-1.46 0-2.81-.46-3.9-1.25v6.6c0 2.76-2.24 5-5 5s-5-2.24-5-5 2.24-5 5-5c.27 0 .54.02.8.05v2.55c-.25-.08-.52-.13-.8-.13-1.38 0-2.5 1.12-2.5 2.5s1.12 2.5 2.5 2.5 2.5-1.12 2.5-2.5V11h2.4v.9z" fill="#69C9D0"/>
</svg>
