<svg width="153" height="26" viewBox="0 0 153 26" fill="none" xmlns="http://www.w3.org/2000/svg">
<g clip-path="url(#clip0_4333_5536)">
<path d="M29.12 21.4899C28.92 21.4899 28.71 21.7599 28.48 22.0499C28.15 22.4599 27.75 22.9699 27.12 22.9699C26.66 22.9699 26.16 22.5599 26.16 21.4299C26.16 20.9299 26.21 20.2699 26.3 19.5199L28.27 1.76995C28.34 1.18995 28.37 0.819946 28.37 0.659946C28.37 0.169946 28.18 0.0699463 27.89 0.0699463C27.79 0.0699463 27.55 0.139946 27.24 0.219946C26.68 0.379946 25.83 0.619946 24.65 0.789946L24.23 0.849946C22.97 1.01995 22.56 1.10995 22.56 1.51995C22.56 1.67995 22.75 1.79995 23.01 1.79995C23.16 1.79995 23.31 1.79995 23.44 1.77995C23.55 1.77995 23.65 1.76995 23.73 1.76995C24.87 1.76995 25 2.68995 25 3.37995C25 3.49995 25 3.60995 24.98 3.70995C24.98 3.77995 24.97 3.83995 24.97 3.89995L23.23 19.5099C23.1 20.6899 22.96 21.9099 22.96 23.0599C22.96 24.4999 23.67 25.3999 24.82 25.3999C27 25.3999 29.26 22.5799 29.26 21.8199C29.26 21.6399 29.2 21.5099 29.12 21.5099V21.4899Z" fill="black"/>
<path d="M80.64 18.9099C80.36 18.9099 80.14 19.1799 79.75 19.7099C79.43 20.1399 79.02 20.6799 78.4 21.1999C75.97 23.2499 74.85 23.8599 71.66 23.8599C69.68 23.8599 68.93 23.2999 68.93 21.4499C68.93 21.1699 68.93 20.7499 69 20.2499L70.57 5.88995C70.79 3.89995 71.08 2.68995 72.03 1.99995C72.29 1.79995 72.59 1.67995 72.85 1.56995C73.32 1.36995 73.57 1.25995 73.57 0.919946C73.57 0.719946 73.53 0.569946 73.08 0.569946C72.8 0.569946 72.43 0.599946 71.97 0.649946C71.22 0.719946 70.19 0.809946 68.92 0.809946C67.51 0.809946 66.65 0.739946 65.84 0.669946C65.38 0.629946 65.12 0.599946 64.87 0.599946C64.14 0.599946 64.14 0.889946 64.14 1.01995C64.14 1.37995 64.38 1.46995 65.07 1.62995C65.26 1.67995 65.37 1.71995 65.58 1.77995C66.79 2.17995 67.06 2.98995 67.06 4.54995C67.06 4.88995 67.03 5.21995 67 5.57995V5.62995L65.46 19.7199C65.24 21.7099 64.94 22.9199 63.97 23.6399C63.7 23.8399 63.4 23.9599 63.13 24.0599C62.66 24.2399 62.43 24.3499 62.43 24.6799C62.43 24.8799 62.47 25.0299 62.91 25.0299C63 25.0299 63.17 25.0199 63.45 24.9999C64.42 24.9299 66.45 24.7899 69.68 24.7899C71.57 24.7899 71.78 24.8499 73.19 24.8999C74.2 24.9299 75.08 24.9699 75.81 24.9699C77.65 24.9699 78.56 24.7599 79.46 23.4799C80.39 22.1499 80.9 20.2499 80.9 19.4399C80.9 19.0899 80.76 18.8899 80.62 18.8899L80.64 18.9099Z" fill="black"/>
<path d="M96.1 12.8C96.1 11.23 94.78 10.22 92.73 10.22C88.19 10.22 84.06 14.65 84.06 19.51C84.06 23.04 86.1 25.32 89.26 25.32C92.99 25.32 95.76 22.68 95.76 21.88C95.76 21.68 95.71 21.64 95.52 21.64C95.37 21.64 95.08 21.86 94.78 22.09C94.06 22.65 92.96 23.49 91.26 23.49C88.77 23.49 86.97 21.48 86.97 18.72C86.97 18.26 87.49 18.19 88.27 18.08C88.77 18.01 89.39 17.93 90.15 17.73C93.83 16.81 96.12 14.92 96.12 12.8H96.1ZM87.81 17.4C87.37 17.4 86.95 17.4 86.95 16.82C86.95 14.26 88.78 11.29 91.14 11.29C92.27 11.29 92.99 12.03 92.99 13.18C92.99 15.13 90.72 17.41 87.8 17.41L87.81 17.4Z" fill="black"/>
<path d="M114.45 21.33C114.25 21.33 114.04 21.6 113.81 21.88C113.48 22.29 113.08 22.8 112.45 22.8C111.99 22.8 111.49 22.39 111.49 21.26C111.49 20.76 111.54 20.1 111.63 19.34L112 16.41C112.13 15.32 112.2 14.48 112.2 14.16C112.2 11.65 111.09 10.27 109.07 10.27C107.21 10.27 105.66 11.16 104.32 13C104.26 13.07 104.16 13.1 104.08 13.07C103.99 13.04 103.94 12.95 103.95 12.86L105.21 1.68999C105.28 1.10999 105.31 0.73999 105.31 0.57999C105.31 0.0899902 105.12 -0.0100098 104.83 -0.0100098C104.73 -0.0100098 104.49 0.0599902 104.18 0.13999C103.62 0.29999 102.77 0.53999 101.59 0.70999L101.17 0.76999C99.91 0.93999 99.5 1.02999 99.5 1.43999C99.5 1.59999 99.69 1.71999 99.95 1.71999C100.1 1.71999 100.25 1.71999 100.38 1.69999C100.49 1.69999 100.59 1.68999 100.67 1.68999C101.81 1.68999 101.94 2.60999 101.94 3.29999C101.94 3.41999 101.94 3.52999 101.92 3.62999C101.92 3.69999 101.91 3.75999 101.91 3.81999L99.68 23.1C99.61 23.71 99.61 24.07 99.61 24.25C99.61 24.91 99.72 24.94 100.06 24.94H101.81C102.44 24.94 102.56 24.59 102.74 23.19L103.36 18.61C103.98 14.02 105.09 11.97 106.93 11.97C108.33 11.97 109.13 13.03 109.13 14.89C109.13 15.19 109.1 15.52 109.07 15.88V15.94L108.59 19.33C108.38 20.92 108.28 22.08 108.28 22.88C108.28 24.28 109.03 25.22 110.14 25.22C112.34 25.22 114.61 22.4 114.61 21.64C114.61 21.44 114.52 21.33 114.43 21.33H114.45Z" fill="black"/>
<path d="M146.88 21.61C146.98 21.63 147.01 21.75 147.03 21.84L147.05 22.11C147.05 24.17 147.81 25.36 148.97 25.36C150.7 25.36 152.96 22.56 152.96 21.75C152.96 21.6 152.91 21.51 152.85 21.51C152.63 21.51 152.42 21.78 152.19 22.07C151.87 22.47 151.48 22.96 150.86 22.96C150.4 22.96 149.9 22.55 149.9 21.42C149.9 21.14 149.9 20.48 150.04 19.47L150.38 16.72C150.77 13.56 151.31 11.46 151.6 10.33C151.71 9.92 151.79 9.59 151.79 9.49C151.79 9.39 151.67 9.25 151.55 9.25C151.28 9.25 150.86 9.77 150.49 10.22C149.98 10.84 149.46 11.48 148.9 11.48C148.71 11.48 148.5 11.37 148.19 11.21C147.67 10.94 146.89 10.52 145.84 10.52C143.59 10.52 141.8 11.42 140.05 13.44C138.26 15.5 137.28 17.96 137.28 20.39C137.28 23.4 138.87 25.34 141.34 25.34C143.25 25.34 145.12 24.09 146.63 21.77C146.66 21.72 146.79 21.59 146.89 21.62L146.88 21.61ZM147.8 14.36L147.14 18.39C146.64 21.41 144.91 23.51 142.92 23.51C141.23 23.51 140.38 22.22 140.38 19.66C140.38 14.82 142.76 11.17 145.91 11.17C147.19 11.17 147.9 11.84 147.9 13.06C147.9 13.44 147.87 13.85 147.8 14.36Z" fill="black"/>
<path d="M41.01 21.61C41.11 21.63 41.14 21.75 41.16 21.84L41.18 22.11C41.18 24.17 41.94 25.36 43.1 25.36C44.83 25.36 47.09 22.56 47.09 21.75C47.09 21.6 47.04 21.51 46.98 21.51C46.76 21.51 46.55 21.78 46.32 22.07C46 22.47 45.61 22.96 44.99 22.96C44.53 22.96 44.03 22.55 44.03 21.42C44.03 21.14 44.03 20.48 44.17 19.47L44.51 16.72C44.9 13.56 45.44 11.46 45.73 10.33C45.84 9.92 45.92 9.59 45.92 9.49C45.92 9.39 45.8 9.25 45.68 9.25C45.41 9.25 44.99 9.77 44.62 10.22C44.11 10.84 43.59 11.48 43.03 11.48C42.84 11.48 42.63 11.37 42.32 11.21C41.8 10.94 41.02 10.52 39.97 10.52C37.72 10.52 35.93 11.42 34.18 13.44C32.39 15.5 31.41 17.96 31.41 20.39C31.41 23.4 33 25.34 35.47 25.34C37.38 25.34 39.25 24.09 40.76 21.77C40.79 21.72 40.92 21.59 41.02 21.62L41.01 21.61ZM41.93 14.36L41.27 18.39C40.77 21.41 39.04 23.51 37.05 23.51C35.36 23.51 34.51 22.22 34.51 19.66C34.51 14.82 36.89 11.17 40.04 11.17C41.32 11.17 42.03 11.84 42.03 13.06C42.03 13.44 42 13.85 41.93 14.36Z" fill="black"/>
<path d="M13.28 21.61C13.38 21.63 13.41 21.75 13.43 21.84L13.45 22.11C13.45 24.17 14.21 25.36 15.37 25.36C17.1 25.36 19.36 22.56 19.36 21.75C19.36 21.6 19.31 21.51 19.25 21.51C19.03 21.51 18.82 21.78 18.59 22.07C18.27 22.47 17.88 22.96 17.26 22.96C16.8 22.96 16.3 22.55 16.3 21.42C16.3 21.14 16.3 20.48 16.44 19.47L16.78 16.72C17.17 13.56 17.71 11.46 18 10.33C18.11 9.92 18.19 9.59 18.19 9.49C18.19 9.39 18.07 9.25 17.95 9.25C17.68 9.25 17.26 9.77 16.89 10.22C16.38 10.84 15.86 11.48 15.3 11.48C15.11 11.48 14.9 11.37 14.59 11.21C14.07 10.94 13.29 10.52 12.24 10.52C9.98999 10.52 8.19999 11.42 6.44999 13.44C4.65999 15.5 3.67999 17.96 3.67999 20.39C3.67999 23.4 5.26999 25.34 7.73999 25.34C9.64999 25.34 11.52 24.09 13.03 21.77C13.06 21.72 13.19 21.59 13.29 21.62L13.28 21.61ZM14.2 14.36L13.54 18.39C13.04 21.41 11.31 23.51 9.31999 23.51C7.62999 23.51 6.77999 22.22 6.77999 19.66C6.77999 14.82 9.15999 11.17 12.31 11.17C13.59 11.17 14.3 11.84 14.3 13.06C14.3 13.44 14.27 13.85 14.2 14.36Z" fill="black"/>
<path d="M126.88 20.19C125.85 22.34 125.28 23.08 123.97 23.5C122.66 23.93 121.92 22.66 122.11 20.66C122.14 20.36 122.19 20.03 122.24 19.68V19.62L122.9 16.42C123.22 14.85 123.41 13.7 123.47 12.9C123.57 11.5 122.9 10.51 121.79 10.43C119.6 10.27 117.12 12.92 117.07 13.67C117.06 13.87 117.14 13.99 117.22 13.99C117.42 14 117.65 13.75 117.89 13.48C118.25 13.09 118.69 12.61 119.31 12.66C119.77 12.69 120.24 13.13 120.16 14.27C120.12 14.77 120.03 15.43 119.88 16.17L119.37 18.92C119.16 20 119.03 20.83 119 21.15C118.82 23.65 119.82 25.26 121.84 25.26C124.79 25.26 125.97 23.58 126.77 21.85C127.44 20.38 127.86 19.25 128.51 17.94C128.58 17.8 128.68 17.62 128.86 17.67C129 17.71 129.02 17.92 128.98 18.06C128.4 20.02 128.08 21.8 128.08 22.83C128.08 24.59 128.84 25.26 130.09 25.26C132.09 25.26 134.45 22.61 134.55 21.25C134.55 21.12 134.43 21.01 134.34 21.01C134.17 21.01 133.94 21.37 133.73 21.67C133.34 22.22 132.86 22.76 132.18 22.76C131.32 22.76 131.22 21.98 131.22 21.39C131.22 20.62 131.27 19.54 131.56 18.18L132.85 12.52C132.95 11.94 133.05 11.39 133.05 11.25C133.05 10.9 132.85 10.7 132.5 10.7H130.91C130.37 10.7 130.23 10.86 129.97 11.84C129.77 12.59 129.24 14.37 128.73 15.78C128.08 17.57 127.61 18.67 126.88 20.19Z" fill="black"/>
<path d="M6.24001 2.66999C6.53001 2.86999 6.29001 3.04999 6.10001 3.00999C5.90001 2.97999 5.78001 2.91999 5.17001 2.92999C3.89001 2.94999 3.13001 3.43999 2.65001 4.26999C2.50001 4.51999 2.35001 4.83999 2.61001 5.02999C2.78001 5.15999 3.08001 5.22999 3.38001 5.45999C4.21001 6.09999 4.37001 7.15999 3.77001 7.97999C3.12001 8.86999 1.88001 9.07999 0.990005 8.42999C-0.409994 7.41999 -0.159995 5.53999 0.710005 4.22999C2.27001 1.85999 4.42001 1.95999 5.56001 2.36999C5.65001 2.39999 5.92001 2.44999 6.24001 2.66999Z" fill="black"/>
</g>
<defs>
<clipPath id="clip0_4333_5536">
<rect width="152.96" height="25.38" fill="white"/>
</clipPath>
</defs>
</svg>
