<svg width="163" height="26" viewBox="0 0 163 26" fill="none" xmlns="http://www.w3.org/2000/svg">
<g clip-path="url(#clip0_4333_5525)">
<path d="M116.44 16.9L116.39 16.93C115.59 17.37 114.85 17.62 114.24 17.76V13.15C114.24 11.46 112.85 10.08 111.14 10.08C109.43 10.08 108.04 11.46 108.04 13.15V14.01C108.04 16.73 110.14 18.9 112.93 19.09V19.59C112.93 20.94 112.53 22.05 111.73 22.89C110.94 23.73 109.88 24.15 108.61 24.15C107.33 24.15 106.28 23.72 105.49 22.89C104.69 22.05 104.29 20.94 104.29 19.59V14.7C104.29 13.36 104.69 12.25 105.49 11.4C106.09 10.76 106.85 10.36 107.73 10.21L107.76 10.18L107.78 9.31001V9.28001L107.72 9.26001C106.46 9.43001 105.39 9.95001 104.55 10.83C103.43 11.99 102.97 13.11 102.97 14.7V19.59C102.97 21.28 103.5 22.68 104.54 23.74C105.58 24.81 106.95 25.35 108.61 25.35C110.26 25.35 111.63 24.81 112.68 23.74C113.73 22.67 114.26 21.27 114.26 19.59V18.99C114.7 18.97 115.16 18.91 115.69 18.81C115.75 18.8 115.8 18.76 115.82 18.7L116.53 16.96C116.53 16.96 116.53 16.92 116.52 16.9H116.46H116.44ZM112.9 14.28V14.33V17.78C111.91 17.7 111 17.35 110.34 16.72C109.61 16.02 109.26 15.24 109.26 14.27V12.84C109.26 11.85 110.07 11.04 111.08 11.04C112.08 11.04 112.9 11.85 112.9 12.84V14.29V14.28Z" fill="black"/>
<path d="M41.24 20.77C41.18 21.6 40.91 21.77 40.34 22.33C40.61 22.94 41.74 25.38 42.11 25.38C42.58 25.38 42.45 22.26 42.45 21.22V15.7C42.45 14.04 42.84 12.74 43.63 11.8C44.41 10.85 45.47 10.38 46.79 10.38C48.11 10.38 49.13 10.82 49.85 11.7C50.57 12.58 50.92 13.81 50.92 15.39V20.74C50.87 21.6 50.6 21.77 50.01 22.33C50.28 22.94 51.41 25.38 51.78 25.38C52.25 25.38 52.12 22.26 52.12 21.22V15.23C52.12 13.36 51.67 11.91 50.78 10.85C49.89 9.80004 48.65 9.27004 47.05 9.27004C46.08 9.27004 45.21 9.49004 44.44 9.94004C43.67 10.39 43.07 11.02 42.64 11.83C42.61 11.91 42.57 11.95 42.52 11.95C42.47 11.95 42.44 11.91 42.44 11.83V10.55C42.47 9.72004 42.87 9.03004 43.69 8.64004V8.46004L40.64 6.79004L40.31 7.13004C40.97 8.00004 41.2 9.15004 41.22 10.49V20.77H41.24Z" fill="black"/>
<path d="M70.55 9.84004C69.6 8.66004 68.05 7.99004 66.54 8.07004C65.03 8.14004 62.16 8.54004 61.2 8.61004L63.08 10.32C63.77 9.77004 63.8 9.54004 65.62 9.29004C65.62 9.29004 66.62 9.14004 67.19 9.21004C68.24 9.35004 69.06 9.82004 69.67 10.62C70.4 11.59 70.76 12.33 70.76 13.96V14.08C70.76 14.19 70.7 14.24 70.6 14.24H66.99C65.04 14.24 63.52 14.63 62.34 15.64C61.16 16.65 60.53 17.66 60.53 19.76C60.53 21.73 61.07 22.51 62.05 23.31C63.02 24.11 64.21 24.41 65.62 24.41C66.67 24.41 67.63 24.2 68.5 23.78C69.09 23.49 69.59 23.1 70.02 22.62C70.34 23.34 71.25 25.24 71.56 25.24C71.87 25.24 71.97 23.55 71.99 22.27C71.99 22.17 71.99 14.04 71.99 14.04C71.99 12.04 71.52 11.01 70.57 9.83004L70.55 9.84004ZM70.76 19.14C70.76 20.72 70.27 21.22 69.28 22.06C68.29 22.9 67.12 23.32 65.77 23.32C64.58 23.32 63.62 23.07 62.89 22.36C62.16 21.65 61.74 21.18 61.74 19.73C61.74 18.05 62.26 17.35 63.22 16.49C64.18 15.64 65.43 15.31 67.03 15.31H70.6C70.71 15.31 70.76 15.36 70.76 15.47V19.14Z" fill="black"/>
<path d="M30.3 9.84004C29.35 8.66004 27.8 7.99004 26.29 8.07004C24.78 8.14004 21.91 8.54004 20.95 8.61004L22.83 10.32C23.52 9.77004 23.55 9.54004 25.37 9.29004C25.37 9.29004 26.37 9.14004 26.94 9.21004C27.99 9.35004 28.81 9.82004 29.42 10.62C30.15 11.59 30.51 12.33 30.51 13.96V14.08C30.51 14.19 30.45 14.24 30.35 14.24H26.74C24.79 14.24 23.27 14.63 22.09 15.64C20.91 16.65 20.28 17.66 20.28 19.76C20.28 21.73 20.82 22.51 21.8 23.31C22.77 24.11 23.96 24.41 25.37 24.41C26.42 24.41 27.38 24.2 28.25 23.78C28.84 23.49 29.34 23.1 29.77 22.62C30.09 23.34 31 25.24 31.31 25.24C31.63 25.24 31.72 23.55 31.74 22.27C31.74 22.17 31.74 14.04 31.74 14.04C31.74 12.04 31.27 11.01 30.32 9.83004L30.3 9.84004ZM30.5 19.14C30.5 20.72 30.01 21.22 29.02 22.06C28.03 22.9 26.86 23.32 25.51 23.32C24.32 23.32 23.36 23.07 22.63 22.36C21.9 21.65 21.48 21.18 21.48 19.73C21.48 18.05 22 17.35 22.96 16.49C23.92 15.64 25.17 15.31 26.77 15.31H30.34C30.45 15.31 30.5 15.36 30.5 15.47V19.14Z" fill="black"/>
<path d="M150.04 21.15V15.16C150.04 13.29 149.59 11.84 148.7 10.78C147.81 9.73002 146.57 9.20002 144.97 9.20002C144 9.20002 143.13 9.42002 142.36 9.87002C141.59 10.32 140.99 10.95 140.56 11.76C140.46 11.91 140.26 12.37 140.08 12.93C139.88 12.18 139.58 11.53 139.16 10.98V10.93L139.15 10.96C139.1 10.9 139.07 10.83 139.02 10.77C138.13 9.72002 136.89 9.19002 135.29 9.19002C134.32 9.19002 133.45 9.41002 132.68 9.86002C131.91 10.31 131.31 10.94 130.88 11.75C130.85 11.83 130.81 11.87 130.76 11.87C130.71 11.87 130.68 11.83 130.68 11.75V10.53C130.71 9.70002 131.11 9.01002 131.93 8.62002V8.44002L128.88 6.77002L128.55 7.11002C129.21 7.98002 129.44 9.13002 129.46 10.47V20.68C129.4 21.51 129.13 21.68 128.56 22.24C128.83 22.85 129.96 25.29 130.33 25.29C130.8 25.29 130.67 22.17 130.67 21.13V15.61C130.67 13.95 131.06 12.65 131.85 11.71C132.63 10.76 133.69 10.29 135.01 10.29C136.33 10.29 137.35 10.73 138.07 11.61C138.79 12.49 139.14 13.72 139.14 15.3V20.65C139.09 21.51 138.82 21.68 138.23 22.24C138.5 22.85 139.63 25.29 140 25.29C140.47 25.29 140.34 22.17 140.34 21.13V15.7V15.62C140.34 13.96 140.74 12.66 141.52 11.72C142.3 10.77 143.36 10.3 144.68 10.3C146 10.3 147.02 10.74 147.74 11.62C148.46 12.5 148.81 13.73 148.81 15.31V20.66C148.76 21.52 148.49 21.69 147.9 22.25C148.17 22.86 149.3 25.3 149.67 25.3C150.14 25.3 150.01 22.18 150.01 21.14L150.04 21.15Z" fill="black"/>
<path d="M160.603 3.29855C161.392 3.26934 162.008 2.60586 161.979 1.81663C161.949 1.0274 161.286 0.411293 160.497 0.440509C159.708 0.469724 159.091 1.1332 159.121 1.92243C159.15 2.71166 159.813 3.32777 160.603 3.29855Z" fill="black"/>
<path d="M11.82 21.22V21.17V15.23C11.82 13.36 11.37 11.91 10.48 10.85C9.59 9.8 8.35 9.27 6.75 9.27C5.78 9.27 4.91 9.49 4.14 9.94C3.37 10.39 2.77 11.02 2.34 11.83C2.31 11.91 2.27 11.95 2.22 11.95C2.17 11.95 2.14 11.91 2.14 11.83V3.76C2.17 2.93 2.57 2.24 3.38 1.85V1.67L0.33 0L0 0.34C0.66 1.21 0.89 2.36 0.91 3.7V21.23C0.81 21.76 0.48 21.89 0.02 22.33C0.29 22.94 1.42 25.38 1.79 25.38C2.26 25.38 2.12 22.26 2.12 21.22V15.7C2.12 14.04 2.51 12.74 3.3 11.8C4.08 10.85 5.14 10.38 6.46 10.38C7.78 10.38 8.8 10.82 9.52 11.7C10.24 12.58 10.59 13.81 10.59 15.39V21.18C10.49 21.74 10.16 21.88 9.69 22.33C9.96 22.94 11.09 25.38 11.46 25.38C11.93 25.38 11.8 22.26 11.8 21.22H11.82Z" fill="black"/>
<path d="M97.92 11.77C97.92 11.77 95.97 9.92996 95.91 9.86996C95.74 9.70996 95.53 9.69996 95.39 9.91996C95.37 9.94996 94.33 11.43 94.33 11.43H92.08V7.96996C92.11 7.13996 92.51 6.44996 93.33 6.05996V5.87996L90.24 4.20996L89.91 4.54996C90.56 5.39996 90.79 6.53996 90.82 7.84996V11.43H88.12C87.19 11.37 86.25 11.25 85.42 11.05H85.38V11.11L86.19 12.75L86.22 12.77C87.37 12.5 87.97 12.28 89.03 12.27H90.77V21.3C90.77 22.87 91.13 23.97 91.85 24.56C92.51 25.1 93.45 25.33 94.98 25.33C94.98 25.33 96.06 25.31 96.26 25.27L96.3 25.25V25.22L96.08 24.35C96.08 24.33 96.05 24.31 96.02 24.31C95.88 24.32 95.14 24.33 95.14 24.33C93.93 24.33 93.26 24.16 92.82 23.74C92.34 23.28 92.09 22.43 92.09 21.24V12.28H97.73C97.73 12.28 97.87 12.28 97.94 12.26C98.07 12.22 98.1 12.13 98.1 12.06C98.1 11.93 98.03 11.87 97.91 11.77H97.92Z" fill="black"/>
<path d="M159.24 6.80005L158.91 7.14005C159.57 8.01005 159.8 9.16005 159.82 10.5V21.24C159.71 21.77 159.39 21.9 158.93 22.34C159.2 22.95 160.33 25.39 160.7 25.39C161.17 25.39 161.03 22.27 161.03 21.23V10.56C161.06 9.73005 161.46 9.04005 162.28 8.65005V8.47005L159.23 6.80005H159.24Z" fill="black"/>
</g>
<defs>
<clipPath id="clip0_4333_5525">
<rect width="162.3" height="25.38" fill="white"/>
</clipPath>
</defs>
</svg>
