<svg width="165" height="22" viewBox="0 0 165 22" fill="none" xmlns="http://www.w3.org/2000/svg">
<g clip-path="url(#clip0_4333_5514)">
<path d="M16.78 17.19C15.34 18.69 13.55 19.44 11.41 19.44C9.06 19.44 7.18 18.66 5.78 17.11C4.38 15.55 3.68 13.38 3.68 10.59C3.68 7.8 4.47 5.62 6.04 3.98C7.5 2.48 9.29 1.73 11.41 1.73C13.78 1.73 15.66 2.5 17.05 4.03C18.44 5.56 19.14 7.75 19.14 10.59C19.14 13.43 18.35 15.57 16.78 17.2V17.19ZM19.8 3.08C17.7 1.03 14.9 0 11.4 0C8.15 0 5.44 1.04 3.26 3.13C1.09 5.21 0 7.7 0 10.6C0 13.65 1 16.16 3 18.12C5.09 20.15 7.89 21.16 11.39 21.16C12.76 21.16 14.03 20.97 15.22 20.57C16.4 20.18 17.47 19.62 18.43 18.9L20.65 20.8H24.75C25.18 20.8 25.39 20.67 25.39 20.42C25.39 20.36 25.27 20.26 25.02 20.15L23.66 19.64C23.21 19.43 22.82 19.2 22.5 18.96C22.48 18.93 22.31 18.76 21.99 18.44L20.56 16.9C22.05 15.1 22.79 13 22.79 10.58C22.79 7.53 21.79 5.02 19.79 3.07L19.8 3.08Z" fill="#231815"/>
<path d="M40.59 1.17004H35.85C35.39 1.17004 35.32 1.44004 35.32 1.60004C35.32 1.77004 35.42 2.00004 35.89 2.12004L36.82 2.37004C36.98 2.44004 37.05 2.54004 37.05 2.70004V12.08C37.05 12.99 36.67 13.74 35.93 14.29C35.18 14.86 34.19 15.14 32.98 15.14C31.77 15.14 30.73 14.85 29.97 14.29C29.22 13.73 28.83 12.99 28.83 12.08V2.70004C28.83 2.55004 28.91 2.44004 29.06 2.37004L30 2.12004C30.47 2.00004 30.57 1.77004 30.57 1.60004C30.57 1.44004 30.5 1.17004 30.05 1.17004H24.87C24.37 1.17004 24.3 1.41004 24.3 1.55004C24.3 1.76004 24.4 2.03004 24.86 2.12004L25.96 2.37004C26.16 2.42004 26.26 2.54004 26.26 2.75004V11.85C26.26 13.42 26.96 14.64 28.33 15.49C29.53 16.23 31.02 16.61 32.75 16.61C34.48 16.61 36 16.23 37.17 15.49C38.53 14.64 39.21 13.42 39.21 11.85V2.75004C39.21 2.54004 39.31 2.42004 39.51 2.37004L40.61 2.12004C41.07 2.03004 41.17 1.76004 41.17 1.55004C41.17 1.38004 41.07 1.17004 40.59 1.17004Z" fill="#231815"/>
<path d="M54.22 12.63C54.05 12.63 53.91 12.66 53.8 12.73C53.69 12.79 53.59 12.87 53.49 12.99L52.21 14.58C52.06 14.79 51.88 14.89 51.64 14.89H47.09C46.69 14.89 46.64 14.69 46.64 14.52V9.32004H50.86C51.21 9.32004 51.42 9.43004 51.49 9.65004L51.77 10.43C51.87 10.7 52.07 10.84 52.37 10.84C52.94 10.84 53.02 10.51 53.02 10.32V6.87004C53.02 6.66004 52.97 6.51004 52.87 6.42004C52.77 6.33004 52.61 6.29004 52.37 6.29004C52.07 6.29004 51.87 6.44004 51.77 6.73004L51.49 7.53004C51.42 7.75004 51.21 7.85004 50.86 7.85004H46.64V2.64004H51.69C51.99 2.64004 52.08 2.77004 52.13 2.88004L52.76 4.02004C52.94 4.31004 53.16 4.46004 53.4 4.46004C53.6 4.46004 53.76 4.39004 53.88 4.25004C54 4.11004 54.05 3.97004 54.05 3.83004L54.02 3.32004L53.77 1.26004C53.77 1.21004 53.72 1.17004 53.67 1.17004H42.9C42.24 1.17004 42.1 1.44004 42.1 1.67004C42.1 1.88004 42.31 2.03004 42.71 2.12004L43.76 2.37004C43.83 2.38004 43.9 2.42004 43.96 2.48004C44.02 2.53004 44.05 2.66004 44.05 2.84004V14.69C44.05 15.05 43.88 15.13 43.75 15.16L42.7 15.41C42.55 15.45 42.09 15.55 42.09 15.86C42.09 16.08 42.23 16.33 42.89 16.33H53.84C53.84 16.33 53.93 16.3 53.94 16.26L54.64 13.87C54.66 13.79 54.68 13.72 54.7 13.64L54.74 13.48C54.78 13.34 54.79 13.23 54.79 13.14C54.79 12.8 54.58 12.62 54.21 12.62L54.22 12.63Z" fill="#231815"/>
<path d="M67.93 12.63C67.76 12.63 67.61 12.66 67.5 12.73C67.39 12.79 67.29 12.87 67.19 12.99L65.91 14.58C65.76 14.78 65.57 14.89 65.34 14.89H60.79C60.39 14.89 60.34 14.69 60.34 14.52V9.32004H64.56C64.91 9.32004 65.12 9.43004 65.19 9.65004L65.46 10.43C65.56 10.7 65.77 10.84 66.06 10.84C66.6 10.84 66.71 10.56 66.71 10.32V6.87004C66.71 6.66004 66.66 6.51004 66.56 6.42004C66.46 6.34004 66.3 6.29004 66.06 6.29004C65.76 6.29004 65.56 6.44004 65.46 6.73004L65.19 7.53004C65.12 7.75004 64.91 7.85004 64.56 7.85004H60.34V2.64004H65.39C65.69 2.64004 65.78 2.77004 65.83 2.88004L66.46 4.02004C66.65 4.31004 66.86 4.46004 67.1 4.46004C67.3 4.46004 67.46 4.39004 67.58 4.25004C67.7 4.12004 67.75 3.98004 67.75 3.83004L67.73 3.32004L67.48 1.26004C67.48 1.21004 67.43 1.17004 67.38 1.17004H56.61C55.94 1.17004 55.8 1.44004 55.8 1.67004C55.8 1.87004 56.01 2.02004 56.41 2.12004L57.47 2.37004C57.54 2.38004 57.6 2.42004 57.67 2.48004C57.71 2.52004 57.76 2.61004 57.76 2.85004V14.7C57.76 15.06 57.59 15.14 57.46 15.17L56.4 15.42C56 15.52 55.79 15.67 55.79 15.87C55.79 16.09 55.93 16.34 56.6 16.34H67.55C67.55 16.34 67.64 16.31 67.65 16.27L68.35 13.88C68.38 13.75 68.41 13.63 68.45 13.49C68.49 13.36 68.5 13.25 68.5 13.15C68.5 12.81 68.3 12.63 67.93 12.63Z" fill="#231815"/>
<path d="M86.22 1.17003H81.63C81.17 1.17003 81.11 1.44003 81.11 1.60003C81.11 1.78003 81.21 2.01003 81.69 2.12003L82.64 2.37003C82.8 2.42003 82.87 2.53003 82.87 2.70003L82.82 12.6L73.37 1.22003C73.37 1.22003 73.32 1.18003 73.29 1.18003L70.03 1.16003C69.53 1.16003 69.46 1.40003 69.46 1.54003C69.46 1.75003 69.56 2.02003 70.01 2.11003L71.11 2.36003C71.31 2.41003 71.41 2.53003 71.41 2.73003V14.78C71.41 14.97 71.31 15.09 71.11 15.16L70.01 15.41C69.55 15.5 69.46 15.77 69.46 15.99C69.46 16.15 69.56 16.34 70.03 16.34H74.63C75.09 16.34 75.16 16.09 75.16 15.94C75.16 15.69 74.96 15.52 74.58 15.42L73.63 15.17C73.47 15.11 73.39 15 73.39 14.84L73.44 4.70003L83.15 16.31C83.15 16.31 83.2 16.35 83.23 16.35H84.75C84.81 16.35 84.85 16.3 84.85 16.25V2.75003C84.85 2.55003 84.95 2.43003 85.15 2.38003L86.25 2.13003C86.71 2.04003 86.81 1.77003 86.81 1.56003C86.81 1.39003 86.71 1.18003 86.23 1.18003L86.22 1.17003Z" fill="#231815"/>
<path d="M118.76 20.08L117.5 19.75C117.22 19.64 117.06 19.47 117.04 19.25L115.55 4.27001L115.45 3.15001C115.45 2.99001 115.51 2.87001 115.63 2.75001C115.75 2.64001 116 2.53001 116.37 2.42001L117.13 2.25001C117.44 2.21001 117.65 2.14001 117.75 2.06001C117.86 1.98001 117.92 1.85001 117.92 1.69001C117.92 1.41001 117.64 1.26001 117.06 1.26001H112.12L104.84 17.22L98.05 1.26001H93.13C92.56 1.26001 92.27 1.40001 92.27 1.68001C92.27 1.94001 92.53 2.13001 93.06 2.24001L93.82 2.41001C94.17 2.52001 94.4 2.63001 94.51 2.74001C94.62 2.85001 94.68 2.98001 94.68 3.14001C94.68 3.38001 94.68 3.55001 94.66 3.63001C94.66 3.72001 94.62 3.93001 94.55 4.26001L92.77 19.24C92.77 19.46 92.56 19.62 92.14 19.74L91.05 20.07C90.79 20.16 90.61 20.23 90.51 20.3C90.41 20.37 90.36 20.46 90.36 20.57C90.36 20.88 90.58 21.03 91.02 21.03H97.14C97.34 21.03 97.51 20.99 97.65 20.91C97.8 20.84 97.87 20.73 97.87 20.6C97.87 20.38 97.6 20.2 97.07 20.07L95.94 19.74C95.54 19.58 95.34 19.42 95.34 19.24L95.42 18.22L96.91 4.73001L103.53 21.02H105.36L112.81 4.70001L113.73 18.09L113.82 18.98C113.82 19.38 113.63 19.63 113.27 19.74L112.09 20.07C111.56 20.2 111.31 20.41 111.31 20.7C111.31 20.92 111.48 21.03 111.84 21.03H118.77C119.21 21.03 119.43 20.88 119.43 20.57C119.43 20.35 119.2 20.18 118.74 20.07L118.76 20.08Z" fill="#231815"/>
<path d="M134.92 15.42L134.01 15.17C133.9 15.15 133.8 15.03 133.71 14.83L128.07 1.23004C128.07 1.23004 128.02 1.17004 127.98 1.17004H126.24C126.24 1.17004 126.16 1.19004 126.15 1.23004L120.65 14.43C120.36 15.1 120.22 15.16 120.19 15.17L119.22 15.42C119.03 15.46 118.79 15.53 118.69 15.61C118.59 15.67 118.54 15.78 118.54 15.92C118.54 16.08 118.61 16.35 119.12 16.35H123.6C124.09 16.35 124.2 16.1 124.2 15.9C124.2 15.7 124 15.54 123.6 15.43L122.77 15.19C122.63 15.11 122.6 15.03 122.6 14.97L122.7 14.57L123.71 12.02H129.83L130.9 14.71L131.02 15.03C131.02 15.03 131 15.14 130.84 15.19L130.17 15.44C129.63 15.61 129.4 15.76 129.4 15.93C129.4 16.12 129.5 16.35 130 16.35H135.03C135.53 16.35 135.6 16.08 135.6 15.92C135.6 15.7 135.38 15.54 134.92 15.42ZM129.11 10.29H124.47L126.84 4.50004L129.11 10.29Z" fill="#231815"/>
<path d="M150.42 15.42L149.56 15.17C149.38 15.09 149.26 14.99 149.19 14.86L145.79 9.25003C146.69 8.94003 147.46 8.42003 148.09 7.71003C148.76 6.96003 149.1 6.17003 149.1 5.37003C149.1 2.58003 147.22 1.16003 143.52 1.16003H137.67C137.01 1.16003 136.87 1.43003 136.87 1.66003C136.87 1.86003 137.08 2.01003 137.48 2.11003L138.53 2.36003C138.6 2.37003 138.66 2.41003 138.73 2.47003C138.79 2.52003 138.82 2.65003 138.82 2.83003V14.68C138.82 15.04 138.65 15.12 138.52 15.15L137.47 15.4C137.06 15.5 136.86 15.64 136.86 15.85C136.86 16.07 137 16.32 137.66 16.32H142.62C143.08 16.32 143.15 16.07 143.15 15.92C143.15 15.67 142.96 15.5 142.58 15.4L141.65 15.15C141.49 15.09 141.41 14.93 141.41 14.67V9.72003H143.12L147.04 16.27C147.04 16.27 147.09 16.32 147.13 16.32H150.66C151.14 16.32 151.21 16.09 151.21 15.94C151.21 15.72 150.96 15.54 150.44 15.39L150.42 15.42ZM146.5 5.41003C146.5 6.35003 146.14 7.06003 145.39 7.58003C144.72 8.05003 143.87 8.29003 142.86 8.29003H141.4V2.64003H143.2C144.34 2.64003 145.2 2.89003 145.74 3.39003C146.23 3.85003 146.48 4.54003 146.48 5.42003L146.5 5.41003Z" fill="#231815"/>
<path d="M164.04 1.17001H159.62C159.12 1.17001 159.05 1.44001 159.05 1.59001C159.05 1.97001 159.6 2.08001 159.77 2.11001L160.07 2.19001C160.22 2.22001 160.46 2.29001 160.46 2.41001C160.46 2.44001 160.44 2.56001 160.18 2.98001L157.52 7.90001L154.71 2.82001C154.68 2.76001 154.64 2.68001 154.61 2.60001C154.57 2.50001 154.57 2.47001 154.57 2.46001C154.57 2.37001 154.68 2.30001 154.76 2.26001L155.21 2.11001C155.45 2.04001 155.62 1.98001 155.72 1.90001C155.82 1.82001 155.87 1.71001 155.87 1.58001C155.87 1.39001 155.77 1.15001 155.27 1.15001H150.41C149.91 1.15001 149.8 1.40001 149.8 1.60001C149.8 1.74001 149.94 1.87001 150.62 2.09001L151.36 2.34001C151.46 2.38001 151.55 2.44001 151.63 2.51001C151.67 2.56001 151.78 2.69001 151.98 3.07001L155.91 10.07V14.67C155.91 14.93 155.83 15.09 155.68 15.15L154.81 15.4C154.6 15.46 154.44 15.53 154.35 15.58C154.23 15.64 154.17 15.76 154.17 15.92C154.17 16.07 154.24 16.32 154.69 16.32H159.7C160.15 16.32 160.22 16.07 160.22 15.92C160.22 15.73 160.13 15.63 160.05 15.59C159.95 15.53 159.79 15.46 159.58 15.4L158.73 15.15C158.57 15.09 158.49 14.93 158.49 14.67V10.07L162.62 2.70001C162.72 2.54001 162.83 2.41001 162.95 2.33001C163.06 2.26001 163.23 2.20001 163.48 2.17001L163.83 2.09001C164.17 2.03001 164.61 1.91001 164.61 1.59001C164.61 1.42001 164.53 1.14001 164.01 1.14001L164.04 1.17001Z" fill="#231815"/>
</g>
<defs>
<clipPath id="clip0_4333_5514">
<rect width="164.64" height="21.15" fill="white"/>
</clipPath>
</defs>
</svg>
