<svg width="135" height="31" viewBox="0 0 135 31" fill="none" xmlns="http://www.w3.org/2000/svg">
<g clip-path="url(#clip0_4333_5501)">
<path d="M121.15 17.1801C119.99 17.8001 118.98 18.8101 118.98 20.4301C118.98 22.0601 120.06 23.1401 121.95 23.5001C119.3 23.7801 117.88 24.9601 117.88 26.7601C117.88 29.0201 120.58 30.4601 125.15 30.4601C129.37 30.4601 133.12 28.1401 133.12 24.6601C133.12 21.9501 131.08 20.5501 127.01 20.5501H124.6C121.98 20.5501 121.26 19.7201 121.26 18.8101C121.26 18.3701 121.4 17.9601 121.73 17.6101C121.56 17.5101 121.36 17.3701 121.16 17.1901L121.15 17.1801ZM125.82 23.6101C128.55 23.6101 130.36 24.3801 130.36 26.2601C130.36 28.1401 128.44 29.9101 125.5 29.9101C122.3 29.9101 120.88 28.5301 120.88 26.5401C120.88 25.3501 121.35 24.5201 121.96 24.0301C122.43 23.6701 122.83 23.6201 123.38 23.6201H125.82V23.6101Z" fill="black"/>
<path d="M107.93 8.12006C107.73 8.12006 107.61 8.26006 107.61 8.40006C107.61 8.54006 107.73 8.68006 107.93 8.68006H109.5C110.58 8.68006 110.63 9.43006 110.63 10.3401V14.6601V17.2701V18.4701V19.7201V21.4901C110.63 21.4901 110.6 22.0701 111.29 22.2701C111.43 22.3201 111.61 22.3401 111.85 22.3401H116.71C116.91 22.3401 117.03 22.2001 117.03 22.0601C117.03 21.9201 116.91 21.7801 116.71 21.7801C114.62 21.7801 114.27 21.1401 114.27 18.5801V12.8101C114.27 10.1001 114.36 9.05006 114.44 8.50006C114.47 8.28006 114.5 8.03006 114.5 7.86006C114.5 7.64006 114.35 7.56006 114.18 7.56006C114.03 7.56006 113.89 7.59006 113.77 7.64006C112.52 8.11006 110.14 8.11006 107.93 8.11006V8.12006Z" fill="black"/>
<path d="M109.84 20.93V20.11C109.21 21.05 108.23 21.65 106.94 21.65C104.85 21.65 103.92 20.41 103.92 17.62V12.37C103.92 11.21 104.09 9.18997 104.27 8.41997C104.36 8.02997 104.36 7.91997 104.36 7.86997C104.36 7.81997 104.24 7.58997 104.07 7.58997C103.98 7.58997 103.49 7.66997 103.11 7.75997C101.86 8.00997 100.06 8.11997 98.17 8.11997C97.97 8.11997 97.85 8.25997 97.85 8.39997C97.85 8.53997 97.97 8.67997 98.17 8.67997H99.16C100.24 8.67997 100.29 9.28997 100.29 10.06V17.9C100.29 20.97 102.21 22.62 105.38 22.62C107.4 22.62 108.88 22 109.85 20.93H109.84Z" fill="black"/>
<path d="M97.58 22.34C97.78 22.34 97.87 22.2 97.87 22.06C97.87 21.92 97.78 21.78 97.58 21.78C95.81 21.78 95.66 21.72 95.66 19.79V12.55C95.66 9.29005 93.62 7.55005 90.46 7.55005C88.67 7.55005 87.27 8.03005 86.31 8.92005V9.77005C86.95 8.94005 87.85 8.46005 88.83 8.46005C90.92 8.46005 92 9.76005 92 12.66V19.78C92 19.92 92 20.05 92 20.17V22.24C92.68 22.19 93.38 22.19 93.83 22.19C94.28 22.19 94.99 22.19 95.69 22.25C96.45 22.31 97.17 22.33 97.58 22.33V22.34Z" fill="black"/>
<path d="M127.64 7.73002C127.11 7.62002 126.58 7.56002 126.09 7.56002C123.01 7.56002 119.65 9.35002 119.65 13.06C119.65 14.41 120.33 15.51 121.31 16.33C121.36 16.37 121.42 16.41 121.47 16.46C121.71 16.64 122.08 16.89 122.56 17.13C123.06 17.39 123.6 17.58 124.14 17.72C124.18 17.73 124.22 17.74 124.27 17.75C124.8 17.87 125.34 17.94 125.86 17.94C128.94 17.94 132.3 16.15 132.3 12.44C132.3 10.15 130.31 8.55002 128.17 7.91002C128.63 6.06002 129.9 4.79002 131.28 4.50002C131.13 4.61002 130.99 4.73002 130.87 4.88002C130.54 5.27002 130.35 5.77002 130.35 6.32002C130.35 6.68002 130.44 7.02002 130.59 7.33002C130.71 7.57002 130.88 7.79002 131.08 7.98002C131.48 8.34002 132 8.57002 132.58 8.57002C133.02 8.57002 133.43 8.44002 133.78 8.22002C134.03 8.06002 134.24 7.86002 134.41 7.62002C134.6 7.35002 134.73 7.04002 134.78 6.71002C134.8 6.59002 134.81 6.46002 134.81 6.33002C134.81 5.66002 134.51 5.06002 134.04 4.65002C133.62 4.20002 132.92 3.90002 131.98 3.90002C129.68 3.90002 128.12 5.78002 127.63 7.77002L127.64 7.73002ZM127.71 9.00002C128.36 9.99002 128.61 11.18 128.61 12.65C128.61 14.36 128.39 15.74 127.68 16.65C127.31 17.12 126.69 17.34 126.03 17.34C125.28 17.34 124.69 17.09 124.23 16.51C123.58 15.68 123.36 14.3 123.36 12.84C123.36 11.38 123.58 9.94002 124.23 8.97002C124.67 8.33002 125.13 8.14002 125.94 8.14002C126.62 8.14002 127.31 8.39002 127.71 9.00002Z" fill="black"/>
<path d="M4.06 21.61C4.25 21.34 4.38 21.03 4.43 20.7C4.45 20.58 4.46 20.45 4.46 20.32C4.46 19.44 3.95 18.68 3.21 18.32C2.91 18.17 2.58 18.09 2.22 18.09C1.93 18.09 1.65 18.15 1.39 18.25C1.05 18.39 0.74 18.61 0.51 18.89C0.2 19.28 0 19.78 0 20.33C0 20.69 0.09 21.03 0.24 21.34C0.36 21.58 0.53 21.8 0.73 21.99C1.13 22.35 1.65 22.58 2.23 22.58C2.67 22.58 3.08 22.45 3.43 22.23C3.68 22.07 3.89 21.87 4.06 21.63V21.61Z" fill="black"/>
<path d="M63.84 30.2101C64.07 30.2101 64.16 30.0701 64.16 29.9301C64.16 29.7901 64.07 29.6501 63.84 29.6501C60.82 29.5701 60.34 29.4801 60.34 26.0901L60.31 11.5901C60.31 11.4501 60.31 11.3201 60.31 11.1901C60.31 11.1901 60.31 11.1701 60.31 11.1601C61.12 9.26006 62.51 8.36006 63.96 8.36006C66.88 8.36006 68.05 11.4301 68.05 14.7701C68.05 19.5501 66.62 22.0601 63.99 22.0601C62.97 22.0601 61.96 21.7901 61.17 21.0401V21.7201C62.14 22.3901 63.28 22.6101 64.25 22.6101C68.53 22.6101 72.36 19.3001 72.36 14.5701C72.36 10.5401 69.22 7.56006 64.82 7.56006C62.95 7.56006 61.39 8.32006 60.36 9.78006C60.39 9.48006 60.43 9.15006 60.5 8.77006C60.59 8.33006 60.62 8.08006 60.62 7.89006C60.62 7.75006 60.53 7.59006 60.27 7.59006C60.12 7.59006 59.89 7.62006 59.48 7.70006C58.06 7.98006 56.63 8.11006 54.65 8.11006C54.45 8.11006 54.33 8.25006 54.33 8.39006C54.33 8.53006 54.45 8.67006 54.65 8.67006H55.14C56.8 8.67006 56.86 8.97006 56.86 10.8001V27.5401C56.86 29.4701 56.71 29.5801 54.97 29.6701C54.77 29.6701 54.65 29.8101 54.65 29.9501C54.65 30.0901 54.77 30.2301 54.97 30.2301C55.38 30.2301 55.93 30.2001 56.71 30.1501C57.38 30.0901 58.28 30.0901 58.69 30.0901C59.1 30.0901 60.35 30.0901 61.34 30.1501C62.59 30.2101 63.58 30.2301 63.84 30.2301V30.2101Z" fill="black"/>
<path d="M6.60002 21.92C6.34002 21.92 6.07002 21.9 5.81002 21.88C5.54002 21.85 5.10002 21.79 4.76002 21.68C4.76002 21.68 4.39002 21.97 4.58002 22.38C4.58002 22.38 5.57002 22.51 6.29002 22.5C6.35002 22.5 6.41002 22.5 6.48002 22.5C10.08 22.5 12.89 20.56 12.89 17.74C12.89 14.92 10.34 14.21 7.92002 13.47C5.73002 12.82 3.67002 12.19 3.67002 10.19C3.67002 8.85001 4.78002 7.57001 6.64002 7.57001C9.39002 7.57001 10.56 9.51001 10.76 11.5C10.76 11.64 10.92 11.73 11.09 11.73C11.26 11.73 11.42 11.64 11.42 11.42C11.42 10.17 11.52 9.00001 11.62 8.12001C11.65 7.98001 11.72 7.44001 11.72 7.35001C11.72 7.24001 11.62 7.15001 11.49 7.15001C11.39 7.15001 11.33 7.18001 11.26 7.26001C11.1 7.52001 10.9 7.72001 10.61 7.72001C10.25 7.72001 9.89002 7.61001 9.34002 7.44001C8.72002 7.24001 7.93002 7.01001 6.95002 7.01001C3.39002 7.01001 0.77002 8.89001 0.77002 11.68C0.77002 14.81 3.48002 15.64 5.90002 16.38C7.93002 17.01 9.76002 17.58 9.76002 19.34C9.76002 20.74 8.68002 21.93 6.62002 21.93L6.60002 21.92Z" fill="black"/>
<path d="M79.99 1.1C79.79 1.1 79.67 1.24 79.67 1.38C79.67 1.52 79.79 1.66 79.99 1.66H80.22C81.56 1.66 81.64 1.74 81.64 4.26V16.93V22.27C82.35 22.24 83.05 22.22 83.47 22.22C83.89 22.22 84.61 22.24 85.34 22.27V20.88C85.31 20.61 85.3 20.26 85.3 19.81L85.27 4.65C85.27 3.16 85.3 2.19 85.36 1.53C85.42 0.62 85.42 0.45 85.42 0.34C85.42 0.23 85.31 0 85.08 0C85.02 0 84.91 0.03 84.82 0.08C83.34 0.72 82.55 0.94 79.99 1.1Z" fill="black"/>
<path d="M48.31 11.61C48.42 12.14 48.35 12.29 47.67 12.43L43.26 13.34L43.29 13.89L52.46 11.99L52.38 11.59C51.77 8.65001 48.77 6.90001 44.77 7.73001C40.93 8.52001 37.21 12.22 38.21 17.04C38.21 17.08 38.23 17.13 38.24 17.17C38.18 17.21 38.12 17.27 38.09 17.34C37.68 18.47 36.57 20.77 33.32 21.45C32.39 21.64 31.41 21.57 30.6 21.08C29.05 20.16 28.07 18.04 27.58 15.66C27.52 15.35 27.47 15.04 27.43 14.73C27.28 13.71 27.29 12.79 27.29 12.79C27.29 11.52 27.47 10.36 27.88 9.63001C28.36 8.81001 29 8.49001 29.83 8.31001C30.48 8.18001 31.3 8.25001 31.95 8.73001C32.67 9.27001 33.3 10.44 33.54 11.6C33.65 12.13 33.58 12.28 32.9 12.42L28.49 13.33L28.52 13.88L37.69 11.98L37.61 11.58C37 8.64001 34 6.89001 30 7.72001C26.16 8.51001 22.44 12.21 23.44 17.03C24.36 21.5 29.27 22.92 32.77 22.19C36.1 21.5 37.71 19.75 38.51 18.06C39.92 21.71 44.32 22.85 47.53 22.19C51.21 21.43 52.79 19.36 53.51 17.53C53.56 17.44 53.54 17.38 53.53 17.31C53.5 17.15 53.29 17.08 53.1 17.12C53.01 17.14 52.89 17.22 52.85 17.34C52.44 18.47 51.33 20.77 48.08 21.45C47.15 21.64 46.17 21.57 45.36 21.08C43.81 20.16 42.83 18.04 42.34 15.66C42.28 15.35 42.23 15.04 42.19 14.73C42.04 13.71 42.05 12.79 42.05 12.79C42.05 11.52 42.23 10.36 42.64 9.63001C43.12 8.81001 43.76 8.49001 44.59 8.31001C45.24 8.18001 46.06 8.25001 46.71 8.73001C47.43 9.27001 48.06 10.44 48.3 11.6L48.31 11.61Z" fill="black"/>
<path d="M16.31 19.8V22.26C17.02 22.23 17.72 22.21 18.14 22.21C18.54 22.21 19.25 22.23 19.97 22.26V19.81V19.45V4.64C19.97 3.15 20 2.49 20.06 1.52C20.12 0.61 20.12 0.44 20.12 0.33C20.12 0.14 20 0 19.8 0C19.71 0 19.63 0.03 19.51 0.08C18.03 0.72 17.21 0.94 14.65 1.1C14.45 1.1 14.36 1.24 14.36 1.38C14.36 1.52 14.45 1.66 14.65 1.66H14.88C16.22 1.66 16.3 1.74 16.3 4.26V16.89V19.81L16.31 19.8Z" fill="black"/>
</g>
<defs>
<clipPath id="clip0_4333_5501">
<rect width="134.83" height="30.46" fill="white"/>
</clipPath>
</defs>
</svg>
